<svg width="30" height="30" viewBox="0 0 30 30" fill="none" xmlns="http://www.w3.org/2000/svg">
<path d="M7.92004 13.5801L19.24 2.28007C19.426 2.09262 19.6472 1.94383 19.8909 1.84229C20.1346 1.74075 20.396 1.68848 20.66 1.68848C20.9241 1.68848 21.1855 1.74075 21.4292 1.84229C21.6729 1.94383 21.8941 2.09262 22.08 2.28007C22.4525 2.6548 22.6616 3.1617 22.6616 3.69007C22.6616 4.21844 22.4525 4.72535 22.08 5.10007L12.18 15.1001L22.08 25.0001C22.4525 25.3748 22.6616 25.8817 22.6616 26.4101C22.6616 26.9384 22.4525 27.4453 22.08 27.8201C21.8948 28.009 21.6739 28.1594 21.4302 28.2624C21.1864 28.3654 20.9247 28.419 20.66 28.4201C20.3954 28.419 20.1337 28.3654 19.8899 28.2624C19.6462 28.1594 19.4253 28.009 19.24 27.8201L7.92004 16.5201C7.71703 16.3328 7.55501 16.1055 7.4442 15.8525C7.33338 15.5995 7.27617 15.3263 7.27617 15.0501C7.27617 14.7739 7.33338 14.5007 7.4442 14.2477C7.55501 13.9947 7.71703 13.7674 7.92004 13.5801V13.5801Z" fill="white"/>
</svg>
