<svg width="30" height="30" viewBox="0 0 30 30" fill="none" xmlns="http://www.w3.org/2000/svg">
<path d="M22.08 13.5801L10.76 2.28007C10.574 2.09262 10.3528 1.94383 10.1091 1.84229C9.8654 1.74075 9.60399 1.68848 9.33996 1.68848C9.07594 1.68848 8.81453 1.74075 8.57081 1.84229C8.32709 1.94383 8.10589 2.09262 7.91996 2.28007C7.54746 2.6548 7.33838 3.1617 7.33838 3.69007C7.33838 4.21844 7.54746 4.72535 7.91996 5.10007L17.82 15.1001L7.91996 25.0001C7.54746 25.3748 7.33838 25.8817 7.33838 26.4101C7.33838 26.9384 7.54746 27.4453 7.91996 27.8201C8.10519 28.009 8.32608 28.1594 8.56983 28.2624C8.81358 28.3654 9.07535 28.419 9.33996 28.4201C9.60458 28.419 9.86634 28.3654 10.1101 28.2624C10.3538 28.1594 10.5747 28.009 10.76 27.8201L22.08 16.5201C22.283 16.3328 22.445 16.1055 22.5558 15.8525C22.6666 15.5995 22.7238 15.3263 22.7238 15.0501C22.7238 14.7739 22.6666 14.5007 22.5558 14.2477C22.445 13.9947 22.283 13.7674 22.08 13.5801V13.5801Z" fill="white"/>
</svg>
