<svg width="46" height="46" viewBox="0 0 46 46" fill="none" xmlns="http://www.w3.org/2000/svg">
<path d="M23.0001 37.5833C23.4121 37.5833 23.8149 37.4611 24.1575 37.2321C24.5001 37.0032 24.7671 36.6779 24.9248 36.2972C25.0825 35.9165 25.1238 35.4976 25.0434 35.0935C24.963 34.6894 24.7646 34.3181 24.4732 34.0268C24.1819 33.7354 23.8106 33.537 23.4065 33.4566C23.0024 33.3762 22.5835 33.4175 22.2028 33.5752C21.8221 33.7329 21.4968 33.9999 21.2679 34.3425C21.0389 34.6851 20.9167 35.0879 20.9167 35.4999C20.9167 36.0525 21.1362 36.5824 21.5269 36.9731C21.9176 37.3638 22.4475 37.5833 23.0001 37.5833ZM33.4168 37.5833C33.8288 37.5833 34.2316 37.4611 34.5742 37.2321C34.9168 37.0032 35.1838 36.6779 35.3415 36.2972C35.4992 35.9165 35.5404 35.4976 35.4601 35.0935C35.3797 34.6894 35.1813 34.3181 34.8899 34.0268C34.5985 33.7354 34.2273 33.537 33.8232 33.4566C33.4191 33.3762 33.0002 33.4175 32.6195 33.5752C32.2388 33.7329 31.9134 33.9999 31.6845 34.3425C31.4556 34.6851 31.3334 35.0879 31.3334 35.4999C31.3334 36.0525 31.5529 36.5824 31.9436 36.9731C32.3343 37.3638 32.8642 37.5833 33.4168 37.5833ZM33.4168 29.2499C33.8288 29.2499 34.2316 29.1277 34.5742 28.8988C34.9168 28.6699 35.1838 28.3445 35.3415 27.9638C35.4992 27.5832 35.5404 27.1643 35.4601 26.7601C35.3797 26.356 35.1813 25.9848 34.8899 25.6934C34.5985 25.4021 34.2273 25.2037 33.8232 25.1233C33.4191 25.0429 33.0002 25.0842 32.6195 25.2418C32.2388 25.3995 31.9134 25.6665 31.6845 26.0091C31.4556 26.3517 31.3334 26.7545 31.3334 27.1666C31.3334 27.7191 31.5529 28.249 31.9436 28.6397C32.3343 29.0304 32.8642 29.2499 33.4168 29.2499ZM23.0001 29.2499C23.4121 29.2499 23.8149 29.1277 24.1575 28.8988C24.5001 28.6699 24.7671 28.3445 24.9248 27.9638C25.0825 27.5832 25.1238 27.1643 25.0434 26.7601C24.963 26.356 24.7646 25.9848 24.4732 25.6934C24.1819 25.4021 23.8106 25.2037 23.4065 25.1233C23.0024 25.0429 22.5835 25.0842 22.2028 25.2418C21.8221 25.3995 21.4968 25.6665 21.2679 26.0091C21.0389 26.3517 20.9167 26.7545 20.9167 27.1666C20.9167 27.7191 21.1362 28.249 21.5269 28.6397C21.9176 29.0304 22.4475 29.2499 23.0001 29.2499ZM37.5834 4.24992H35.5001V2.16659C35.5001 1.61405 35.2806 1.08415 34.8899 0.693446C34.4992 0.302745 33.9693 0.083252 33.4168 0.083252C32.8642 0.083252 32.3343 0.302745 31.9436 0.693446C31.5529 1.08415 31.3334 1.61405 31.3334 2.16659V4.24992H14.6667V2.16659C14.6667 1.61405 14.4473 1.08415 14.0566 0.693446C13.6659 0.302745 13.1359 0.083252 12.5834 0.083252C12.0309 0.083252 11.501 0.302745 11.1103 0.693446C10.7196 1.08415 10.5001 1.61405 10.5001 2.16659V4.24992H8.41675C6.75915 4.24992 5.16943 4.9084 3.99733 6.0805C2.82523 7.2526 2.16675 8.84232 2.16675 10.4999V39.6666C2.16675 41.3242 2.82523 42.9139 3.99733 44.086C5.16943 45.2581 6.75915 45.9166 8.41675 45.9166H37.5834C39.241 45.9166 40.8307 45.2581 42.0028 44.086C43.1749 42.9139 43.8334 41.3242 43.8334 39.6666V10.4999C43.8334 8.84232 43.1749 7.2526 42.0028 6.0805C40.8307 4.9084 39.241 4.24992 37.5834 4.24992ZM39.6668 39.6666C39.6668 40.2191 39.4473 40.749 39.0566 41.1397C38.6659 41.5304 38.136 41.7499 37.5834 41.7499H8.41675C7.86421 41.7499 7.33431 41.5304 6.94361 41.1397C6.55291 40.749 6.33342 40.2191 6.33342 39.6666V20.9166H39.6668V39.6666ZM39.6668 16.7499H6.33342V10.4999C6.33342 9.94738 6.55291 9.41748 6.94361 9.02678C7.33431 8.63608 7.86421 8.41658 8.41675 8.41658H10.5001V10.4999C10.5001 11.0525 10.7196 11.5824 11.1103 11.9731C11.501 12.3638 12.0309 12.5833 12.5834 12.5833C13.1359 12.5833 13.6659 12.3638 14.0566 11.9731C14.4473 11.5824 14.6667 11.0525 14.6667 10.4999V8.41658H31.3334V10.4999C31.3334 11.0525 31.5529 11.5824 31.9436 11.9731C32.3343 12.3638 32.8642 12.5833 33.4168 12.5833C33.9693 12.5833 34.4992 12.3638 34.8899 11.9731C35.2806 11.5824 35.5001 11.0525 35.5001 10.4999V8.41658H37.5834C38.136 8.41658 38.6659 8.63608 39.0566 9.02678C39.4473 9.41748 39.6668 9.94738 39.6668 10.4999V16.7499ZM12.5834 29.2499C12.9955 29.2499 13.3983 29.1277 13.7409 28.8988C14.0835 28.6699 14.3505 28.3445 14.5082 27.9638C14.6658 27.5832 14.7071 27.1643 14.6267 26.7601C14.5463 26.356 14.3479 25.9848 14.0566 25.6934C13.7652 25.4021 13.394 25.2037 12.9899 25.1233C12.5857 25.0429 12.1668 25.0842 11.7862 25.2418C11.4055 25.3995 11.0801 25.6665 10.8512 26.0091C10.6223 26.3517 10.5001 26.7545 10.5001 27.1666C10.5001 27.7191 10.7196 28.249 11.1103 28.6397C11.501 29.0304 12.0309 29.2499 12.5834 29.2499ZM12.5834 37.5833C12.9955 37.5833 13.3983 37.4611 13.7409 37.2321C14.0835 37.0032 14.3505 36.6779 14.5082 36.2972C14.6658 35.9165 14.7071 35.4976 14.6267 35.0935C14.5463 34.6894 14.3479 34.3181 14.0566 34.0268C13.7652 33.7354 13.394 33.537 12.9899 33.4566C12.5857 33.3762 12.1668 33.4175 11.7862 33.5752C11.4055 33.7329 11.0801 33.9999 10.8512 34.3425C10.6223 34.6851 10.5001 35.0879 10.5001 35.4999C10.5001 36.0525 10.7196 36.5824 11.1103 36.9731C11.501 37.3638 12.0309 37.5833 12.5834 37.5833Z" fill="white"/>
</svg>
