<svg width="42" height="42" viewBox="0 0 42 42" fill="none" xmlns="http://www.w3.org/2000/svg">
<path d="M35.5834 4.33325H6.41675C4.75915 4.33325 3.16943 4.99173 1.99733 6.16383C0.825229 7.33594 0.166748 8.92565 0.166748 10.5833V31.4166C0.166748 33.0742 0.825229 34.6639 1.99733 35.836C3.16943 37.0081 4.75915 37.6666 6.41675 37.6666H35.5834C37.241 37.6666 38.8307 37.0081 40.0028 35.836C41.1749 34.6639 41.8334 33.0742 41.8334 31.4166V10.5833C41.8334 8.92565 41.1749 7.33594 40.0028 6.16383C38.8307 4.99173 37.241 4.33325 35.5834 4.33325V4.33325ZM6.41675 33.4999C5.86421 33.4999 5.33431 33.2804 4.94361 32.8897C4.55291 32.499 4.33342 31.9691 4.33342 31.4166V26.3749L11.2084 19.5207C11.5979 19.139 12.1214 18.9252 12.6667 18.9252C13.2121 18.9252 13.7356 19.139 14.1251 19.5207L28.1042 33.4999H6.41675ZM37.6668 31.4166C37.6668 31.9691 37.4473 32.499 37.0566 32.8897C36.6659 33.2804 36.136 33.4999 35.5834 33.4999H33.9792L26.0418 25.5207L27.8751 23.6874C28.2645 23.3057 28.7881 23.0919 29.3334 23.0919C29.8787 23.0919 30.4023 23.3057 30.7918 23.6874L37.6668 30.5416V31.4166ZM37.6668 24.6666L33.7501 20.7708C32.5627 19.63 30.98 18.9929 29.3334 18.9929C27.6868 18.9929 26.1041 19.63 24.9168 20.7708L23.0834 22.6041L17.0834 16.6041C15.896 15.4633 14.3133 14.8262 12.6667 14.8262C11.0202 14.8262 9.43746 15.4633 8.25008 16.6041L4.33342 20.4999V10.5833C4.33342 10.0307 4.55291 9.50081 4.94361 9.11011C5.33431 8.71941 5.86421 8.49992 6.41675 8.49992H35.5834C36.136 8.49992 36.6659 8.71941 37.0566 9.11011C37.4473 9.50081 37.6668 10.0307 37.6668 10.5833V24.6666Z" fill="#F9B00B"/>
</svg>
