<svg width="20" height="20" viewBox="0 0 20 20" fill="none" xmlns="http://www.w3.org/2000/svg">
<g clip-path="url(#clip0_106_215)">
<path d="M17.4401 10.9999C17.2201 10.9999 16.9901 10.9299 16.7701 10.8799C16.3246 10.7817 15.8868 10.6514 15.4601 10.4899C14.9962 10.3211 14.4862 10.3299 14.0284 10.5145C13.5706 10.6991 13.1972 11.0465 12.9801 11.4899L12.7601 11.9399C11.7861 11.398 10.8911 10.7251 10.1001 9.93987C9.31487 9.14888 8.64192 8.25387 8.1001 7.27987L8.5201 6.99987C8.96347 6.78278 9.31088 6.4094 9.49549 5.95156C9.68011 5.49372 9.68887 4.98378 9.5201 4.51987C9.36132 4.09229 9.23104 3.65467 9.1301 3.20987C9.0801 2.98987 9.0401 2.75987 9.0101 2.52987C8.88867 1.82549 8.51973 1.18761 7.96972 0.731107C7.41972 0.274605 6.7248 0.0294769 6.0101 0.0398681H3.0101C2.57913 0.0358215 2.15235 0.124682 1.75881 0.300399C1.36527 0.476116 1.01421 0.734564 0.729531 1.05815C0.444851 1.38174 0.233235 1.76286 0.109089 2.17558C-0.0150577 2.5883 -0.0488199 3.02293 0.0101008 3.44987C0.542839 7.63925 2.45613 11.5317 5.44775 14.5125C8.43938 17.4933 12.3388 19.3924 16.5301 19.9099H16.9101C17.6475 19.911 18.3595 19.6404 18.9101 19.1499C19.2265 18.8669 19.4792 18.52 19.6516 18.1322C19.8239 17.7443 19.9121 17.3243 19.9101 16.8999V13.8999C19.8979 13.2053 19.6449 12.5364 19.1944 12.0075C18.744 11.4786 18.1239 11.1225 17.4401 10.9999V10.9999ZM17.9401 16.9999C17.9399 17.1419 17.9095 17.2822 17.8509 17.4115C17.7923 17.5408 17.7068 17.6562 17.6001 17.7499C17.4887 17.8469 17.3581 17.9193 17.2168 17.9624C17.0755 18.0054 16.9267 18.0182 16.7801 17.9999C13.035 17.5197 9.55634 15.8064 6.89282 13.1302C4.2293 10.454 2.53251 6.96721 2.0701 3.21987C2.05419 3.07339 2.06813 2.9252 2.1111 2.78426C2.15407 2.64332 2.22517 2.51256 2.3201 2.39987C2.41381 2.2932 2.52916 2.20771 2.65848 2.14909C2.7878 2.09046 2.92812 2.06005 3.0701 2.05987H6.0701C6.30265 2.05469 6.52972 2.13075 6.71224 2.27494C6.89477 2.41913 7.02131 2.62244 7.0701 2.84987C7.1101 3.1232 7.1601 3.3932 7.2201 3.65987C7.33562 4.18701 7.48936 4.70505 7.6801 5.20987L6.2801 5.85987C6.1604 5.91479 6.05272 5.99281 5.96326 6.08946C5.87379 6.18611 5.8043 6.29948 5.75877 6.42306C5.71324 6.54664 5.69257 6.678 5.69795 6.80959C5.70332 6.94118 5.73464 7.07041 5.7901 7.18987C7.2293 10.2726 9.70735 12.7507 12.7901 14.1899C13.0336 14.2899 13.3066 14.2899 13.5501 14.1899C13.6748 14.1453 13.7894 14.0763 13.8873 13.9871C13.9851 13.8978 14.0643 13.79 14.1201 13.6699L14.7401 12.2699C15.2571 12.4547 15.7847 12.6084 16.3201 12.7299C16.5868 12.7899 16.8568 12.8399 17.1301 12.8799C17.3575 12.9287 17.5608 13.0552 17.705 13.2377C17.8492 13.4202 17.9253 13.6473 17.9201 13.8799L17.9401 16.9999Z" fill="#F9B00B"/>
</g>
<defs>
<clipPath id="clip0_106_215">
<rect width="20" height="20" fill="white"/>
</clipPath>
</defs>
</svg>
