<svg width="34" height="34" fill="none" xmlns="http://www.w3.org/2000/svg"><path d="M33.457 16.457h-.573C32.605 8.118 25.882 1.395 17.53 1.116V.528A.526.526 0 0 0 17 0a.526.526 0 0 0-.529.528v.573C8.118 1.395 1.395 8.118 1.116 16.457H.528a.526.526 0 0 0-.528.528c0 .294.235.529.528.529h.573c.294 8.368 7.017 15.091 15.356 15.37v.573c0 .293.235.528.528.528a.526.526 0 0 0 .529-.528v-.573c8.353-.279 15.077-7.002 15.356-15.355h.572a.526.526 0 0 0 .529-.529c.029-.294-.22-.543-.514-.543ZM17.529 4.727c6.356.279 11.465 5.388 11.744 11.744h-4.61a7.697 7.697 0 0 0-7.134-7.134v-4.61ZM29.273 17.53c-.279 6.356-5.388 11.465-11.744 11.744v-4.61a7.696 7.696 0 0 0 7.134-7.134h4.61ZM16.457 2.173v1.042C9.263 3.494 3.479 9.278 3.215 16.457H2.173C2.452 8.706 8.706 2.452 16.457 2.173Zm0 2.554v4.61a7.697 7.697 0 0 0-7.135 7.134H4.727c.264-6.356 5.388-11.48 11.73-11.744Zm0 27.086C8.69 31.533 2.452 25.28 2.173 17.529h1.042c.279 7.193 6.063 12.977 13.242 13.241v1.043Zm0-2.54C10.1 28.994 4.99 23.885 4.712 17.529h4.61a7.696 7.696 0 0 0 7.135 7.134v4.61ZM17 21.39a.526.526 0 0 0-.529.528v1.674a6.63 6.63 0 0 1-6.063-6.063h1.674A.526.526 0 0 0 12.61 17a.526.526 0 0 0-.528-.529h-1.688a6.63 6.63 0 0 1 6.063-6.063v1.674c0 .294.235.528.528.528a.526.526 0 0 0 .529-.528v-1.688a6.63 6.63 0 0 1 6.063 6.063h-1.674a.526.526 0 0 0-.528.528c0 .294.235.529.528.529h1.674a6.63 6.63 0 0 1-6.063 6.063v-1.674A.502.502 0 0 0 17 21.39Zm.529 10.423V30.77c7.193-.279 12.977-6.063 13.241-13.241h1.043c-.28 7.765-6.518 14.005-14.284 14.284Zm13.256-15.356c-.279-7.194-6.063-12.978-13.242-13.242V2.173c7.766.279 14.005 6.533 14.284 14.284h-1.042Z" fill="#fff" fill-opacity=".2"/></svg>