<svg width="303" height="100" fill="none" xmlns="http://www.w3.org/2000/svg"><path fill="#F9B00B" d="M1.254 49.418 45.418 5.253l44.165 44.165-44.165 44.164z"/><g clip-path="url(#a)"><path d="M8.673 28.97c.027.027.118.09.163.1.045.009.036 0 .082-.01.525-.108.624-.199.715-.199-.027-.117-.109-.009-.181-.633-.3.027-.417.344-.707.271-.398-.1-.778-.461-.724-.869-.461.317-.923.634-1.394.95-.2-.316-.081-.687-.2-1.05-.171.073-.533.38-.66.526 0 .09-.072.045-.09.162.244-.208.434-.316.47-.325l.01-.01c.054.01-.136.028-.155.453-.009.154 0 .181-.009.245-.018.19.118.335.172.326.2-.01.797-.227 1.413.208-.082-.543.072-.878.298-1.268.163.317.064.272.797 1.123ZM12.801 23.448c.163.235.371.434.598.606-.136.054-.263.1-.399.154l.272.38c-.145.29-.371.525-.652.68.19.072.38.108.58.053.081-.018.163-.054.199-.126.045-.09.081-.435.398-1.322a5.39 5.39 0 0 1-.724-.362c.271-.217.39-.245.398-.263-.054-.29-.072-.353-.063-.58-.2.046-.326.146-.462.182.208.226.136.453-.145.598ZM5.432 18.622c-.063.018-.362.1-.425.127-.67.235-.58.082-.643.109.027.1.018.407.018.47.39-.316.66-.389 1.05-.706ZM8.7 17.907c.226-.163.426-.371.661-.534.217.254.543.498.534.924.073-.39.027-.553 0-.788-.072.009-.081 0-.18-.045-.227-.109-.363-.181-.435-.39l-.634-.045c-.136.39-.29.47-.489.797.054.081.48 0 .543.081ZM7.342 17.998c.408-.236.263.127.652-.09.018-.119.054-.4-.018-.653l-.208.109c-.109.208-.109.335-.426.634Z" fill="#BCBCBC"/><path d="M6.563 17.762c.037.073.218.109.326.507.136-.108.48-.271.462-.271.163-.326.01-.616-.154-.67-.009 0-.235.253-.634.434ZM28.69 17.156c.162.235.37.434.597.606-.136.055-.263.1-.398.154l.271.38c-.145.29-.371.526-.652.68.181.072.38.108.58.054.081-.018.163-.055.199-.127.045-.09.081-.435.398-1.322a5.378 5.378 0 0 1-.724-.362c.272-.217.39-.244.398-.262-.054-.29-.072-.354-.063-.58-.2.046-.326.145-.462.181.208.227.136.453-.145.598ZM27.666 12.729c-.127.145-.253.28-.452.489.135.09.362.172.507.108.063.362.461.743.326 1.087.045-.027.217-.326.262-.57.045-.245 0-.345.081-.743-.226-.127-.525-.235-.724-.371ZM85.497 28.97c.027.027.118.09.163.1.036.009.036 0 .082-.01.525-.108.624-.199.715-.199-.027-.117-.109-.009-.181-.633-.3.027-.417.344-.716.271-.398-.1-.778-.461-.724-.869-.462.317-.923.634-1.394.95-.2-.316-.081-.687-.2-1.05-.171.073-.533.38-.66.526 0 .09-.072.045-.09.162.244-.208.434-.316.47-.325l.01-.01c.054.01-.136.028-.155.453-.009.154 0 .181-.009.245-.018.19.118.335.172.326.2-.01.797-.227 1.413.208-.082-.543.072-.878.298-1.268.172.317.064.272.806 1.123ZM79.83 25.828c.045-.253.199-.271.443-.307-.271-.172-.407-.2-.678-.362a2.23 2.23 0 0 1 .28-.87c-.163.136-.326.263-.489.399-.163-.49-.045-1.186.018-1.693-.054.009-.126.163-.19.244l-.498.218c.064.488.118.67.353 1.294l.218.136-.064.38c.227.245.227.29.607.561ZM87.154 18.785c.09-.027.235 0 .326.01.054.144.29.407.29.56.162-.37.226-.416.515-.688l-.805.01-.172-.326c-.19.316 0 .19-.154.434ZM85.515 17.907c.227-.163.426-.371.661-.534.218.254.543.498.534.924.073-.39.028-.553 0-.788-.063.009-.081 0-.18-.045-.227-.109-.363-.181-.435-.39l-.634-.045c-.136.39-.29.47-.489.797.055.081.489 0 .543.081ZM84.166 17.998c.408-.236.263.127.652-.09.018-.119.054-.4-.018-.653l-.208.109c-.118.208-.109.335-.426.634Z" fill="#BCBCBC"/><path d="M83.379 17.762c.036.073.217.109.326.507.135-.108.48-.271.461-.271.163-.326.01-.616-.154-.67 0 0-.235.253-.633.434Z" fill="#BCBCBC"/><path d="M85.47 19.156a.7.7 0 0 1-.978 0 .684.684 0 0 1-.199-.488c0-.182.073-.354.2-.49a.7.7 0 0 1 .978 0 .689.689 0 0 1 0 .978Zm-78.472 0a.7.7 0 0 1-.977 0 .678.678 0 0 1 0-.968.7.7 0 0 1 .977 0c.127.126.2.298.2.489a.711.711 0 0 1-.2.48Zm80.6-3.096a3.677 3.677 0 0 0-2.617-1.077c-.986 0-1.919.38-2.616 1.077a3.664 3.664 0 0 0-1.087 2.608c0 .153.01.307.037.461-1.639 1.476-6.383 5.74-7.93 6.953-.327.253-.607.489-.843.706l-4.553-4.554a.7.7 0 0 0-.978 0l-1.983 1.974a.678.678 0 0 0 0 .969l2.227 2.218c-.335.335-.724.715-1.15 1.131a30.675 30.675 0 0 0-3.693-6.01c-4.364-5.505-10.085-8.538-16.123-8.538-2.698 0-5.523.815-8.41 2.408-2.608 1.449-5.18 3.522-7.433 6.002-1.838 2.028-3.413 4.228-4.663 6.528-.588-.58-1.113-1.096-1.548-1.521l2.227-2.218a.678.678 0 0 0 0-.969l-1.982-1.974a.7.7 0 0 0-.978 0l-4.554 4.545a13.192 13.192 0 0 0-.842-.706c-1.548-1.213-6.3-5.477-7.93-6.953.018-.154.036-.308.036-.462 0-.986-.38-1.91-1.086-2.607a3.677 3.677 0 0 0-2.617-1.077c-.986 0-1.919.38-2.616 1.077a3.688 3.688 0 0 0 0 5.215 3.677 3.677 0 0 0 2.616 1.077c.154 0 .308-.009.462-.036 1.476 1.63 5.749 6.373 6.962 7.921.253.326.489.607.706.842l-4.554 4.545a.678.678 0 0 0 0 .968l1.983 1.974a.7.7 0 0 0 .978 0l2.227-2.218a6131.25 6131.25 0 0 0 6.744 6.817c-1.312 7.822-6.065 16.033-8.22 19.446a7.071 7.071 0 0 0-.353 6.862c1.25 2.526 2.752 5.414 4.228 7.922-.824.923-1.422 1.63-1.766 2.09-4.273 5.867-6.554 13.59-6.654 13.915a.695.695 0 0 0 .172.68.7.7 0 0 0 .68.171c.325-.09 8.066-2.371 13.941-6.645.444-.316 1.114-.887 1.983-1.656 5.721 3.567 14.847 8.564 18.26 10.42.054.036.108.072.172.108.38.227.806.344 1.25.344h.035c.444 0 .87-.117 1.25-.344.054-.036.117-.072.172-.108 3.422-1.856 12.565-6.862 18.287-10.438.878.778 1.557 1.349 2 1.674 5.876 4.264 13.616 6.546 13.942 6.645a.69.69 0 0 0 .68-.172l.008-.009a.695.695 0 0 0 .172-.308.648.648 0 0 0 0-.37c-.1-.327-2.38-8.049-6.654-13.915-.335-.462-.95-1.186-1.792-2.119 1.475-2.498 2.97-5.377 4.21-7.894a7.07 7.07 0 0 0-.354-6.862c-2.154-3.413-6.889-11.597-8.21-19.41 2.95-2.978 5.322-5.377 6.78-6.853l2.218 2.218c.136.136.308.2.489.2a.692.692 0 0 0 .489-.2l1.982-1.974a.7.7 0 0 0 0-.977l-4.553-4.545c.217-.235.452-.516.706-.842 1.213-1.548 5.486-6.283 6.962-7.921.154.018.307.036.461.036.987 0 1.91-.38 2.617-1.077 1.43-1.413 1.43-3.748-.01-5.188Z" fill="#000"/><path d="M38.865 49.611c0-.39-.109-.779-.308-1.113a2.264 2.264 0 0 0 0 2.236c.2-.335.308-.734.308-1.123Zm-.299-1.34c1.747 0 1.738 2.698 0 2.698-1.738-.01-1.747-2.698 0-2.698Zm9.94 10.8c-.081-1.213-.66-2.435-1.376-3.404-.29-.353-.778-1.204-1.349-1.213-.298 0-.624.317-.86.498-1.24.969-1.71 2.21-1.973 3.712-.054.299-.136.634-.163.95-.054.662.118 1.205.462 1.775.28.47.706 1.005 1.258 1.177.688.208 1.168-.326 1.349-.942.561.878 1.403.824 1.946-.027.471-.751.76-1.647.706-2.526Zm11.824-2.453c.063.127.344.543.308.688-.028.109-.344.308-.417.371-.29.254-.588.516-.887.76-.561.471-1.132 1.006-1.793 1.332-.434.217-.869.434-1.294.678-.236.136-.462.317-.715.426-.68.272-1.313.434-1.91.887a5.405 5.405 0 0 0-1.313 1.449c-.181.29-.344.597-.444.923-.072.217-.108.28-.19.435-.217.425-.335.977-.435 1.448-.117.57-.19 1.177-.09 1.756.109.607.47 1.168.742 1.72.127.254.38.589.444.87.036.19-.018.217-.145.416-.172.272-.335.525-.57.751-.136.136-.172.163-.344.2-.163.036-.254-.018-.335.1-.064.09-.09.38-.109.506-.063.335 0 .67.045 1.005.109.751.209 1.72.616 2.381l-.543.244c-.082-.208-.064-.461-.109-.688a4.67 4.67 0 0 0-.244-.787 5.423 5.423 0 0 0-.87-1.503c-.298-.362-.687-.697-1.194-.561-.58.163-.625.615-.77 1.095-.027.082-.136.29-.127.38.018.136-.018.046.127.136.217.145.416.19.616.398.615.643.326 1.485.063 2.246-.19-.616-.181-1.232-.308-1.847-.081-.426-.1.009-.117.199-.019.29-.019.588 0 .878.027.263.063.525.126.788.028.117.154.38.09.48-.08.126-.533.244-.678.307.018-1.159-.073-2.362-.661-3.385-.244-.435-.58-.842-1.014-1.105-.561-.335-.969-.235-1.512.027-.027-.235-.063-.47-.09-.697-.317.788-.616 1.512-.743 2.363-.045-.29-.136-.57-.19-.851-.036-.154.064-.453-.136-.462.335-.135.01-.525-.18-.697-.263-.235-.77-.308-1.033-.045-.108.109-.136.29-.244.407-.217.245-.47.417-.643.715-.344.57-.47 1.223-.48 1.883a15.548 15.548 0 0 1-.389-2.734l-.027-.724c0-.117.063-.47-.01-.57-.053-.073-.18-.027-.262-.082-.154-.1-.072-.335-.081-.552-.444.498-.616 1.15-.733 1.784-.064-.154-.136-.616-.363-.498.027-.263.018-.326-.072-.57-.036-.1-.09-.553-.136-.336-.018-.036-.027-.072-.045-.108l-.344.262c-.036-.172-.118-.896-.263-.896.01-.516.036-1.023.055-1.539.027-.616-.019-1.285.072-1.892.063-.39.426-.724.66-1.041.155-.208.417-.462.508-.706.136-.362-.036-1.005-.1-1.385.118.298.227.597.317.905.272-1.33-.434-2.752-1.367-3.676.136-.09.29-.117.227-.28l-.227.28a18.67 18.67 0 0 1-.815-1.258c-.325-.534-.57-1.132-.995-1.602-.725-.797-1.657-1.413-2.553-1.983-.263-.163-.67-.326-.888-.543-.126-.127-.1-.163-.1-.38v-2.191c1.784.063 3.577.081 5.36-.082 1.34-.117 2.58-.552 3.82-1.05.625-.253 1.313-.616 2.001-.67.625-.054 1.023.227 1.557.462.227.1.507.1.76.163.073.018.146.054.227.063.218.027.109.054.254-.045.226-.145.335-.371.615-.453.444-.136.779.163 1.096.417.434.344.86.697 1.303 1.032.87.66 1.956 1.475 3.115 1.43.941-.036 1.9-.38 2.788-.67a53.351 53.351 0 0 0 3.304-1.213c.57-.226 1.041-.398 1.639-.525-.109.344-.226.688-.317 1.032-.054.19-.063.426-.163.589-.1.19-.308.307-.434.47-.218.281-.471.87-.408 1.259.054.308.48.253.76.253.118.317.236.57.354.833ZM42.767 46.85c.271.489.461 1.077.434 1.648a3.42 3.42 0 0 1 1.24-.263c.417-.01.942-.01 1.24-.371.263-.317.29-.95.372-1.358.073-.344.136-.688.2-1.032.053.561.126 1.113.225 1.666.037.199.028.597.154.742.1.108.335.19.462.253.779.399 2.1 1.069 2.979.58.307-.172.525-.525.77-.77a10.114 10.114 0 0 1 1.792-1.43 14.063 14.063 0 0 1 1.874-.96c.38-.163.86-.253 1.222-.462.344-.19.434-.769.48-1.15.072-.57-.028-1.14-.218-1.674-.362-1.014-1.032-1.91-1.774-2.68-.28-.29-.58-.688-.978-.787-.833-.2-1.729-.245-2.57-.362-.182-.028-.517-.136-.698-.091-.272.082-.606.453-.824.625-.425.317-.85.642-1.276.96-.136.099-.326.199-.435.325-.145.172-.108.29-.136.552-.117-.199-.154-.543-.389-.543-.235-.335-.498-.932-.833-1.15-.136-.09-.362-.117-.516-.162-.344-.11-.688-.218-1.032-.335-.643-.209-1.294-.417-1.937-.625-.399-.127-.353-.118-.625.2l-1.385 1.629c-.362.425-.851.85-1.132 1.33-.145.254-.081.553-.054.851.09.788.335 1.576.788 2.236.715 1.06 1.955 1.485 2.58 2.608Zm37.516 46.007c.009 0 .036.01.054.019-.47-.698-.95-1.404-1.421-2.1-1.385-2.056-2.77-4.11-4.165-6.157-.362-.534-1.04-.606-1.63-.824l-3.014-1.113c-1.068 1.095-2.462 1.919-3.748 2.743l-.299.19c.308.272.58.516.833.724.39.335.715.589.96.77.317.235.643.461.978.679a38.29 38.29 0 0 0 4.001 2.317 54.731 54.731 0 0 0 3.667 1.693c.552.227 1.312.525 1.792.715h.009-.009l.109.046-.1-.037c.036.01.072.028.1.037.009 0 .018.009.027.009l.054.018a48.168 48.168 0 0 0 3.096 1.059l-1.25-.76a.05.05 0 0 0-.044-.028ZM66.775 54.771c-.18-1.666-.724-3.186-1.403-4.698-.688-1.521-1.466-2.997-2.136-4.518-.317-.715-.598-1.412-.996-2.091a24.498 24.498 0 0 0-1.322-1.992c-.96-1.349-2-2.652-3.096-3.902-1.114-1.267-2.3-2.453-3.332-3.802-1.032-1.349-1.982-2.752-3.041-4.083-.978-1.222-2.227-2.806-3.875-3.069-1.485-.244-3.114.48-4.291 1.322-1.358.969-2.454 2.272-3.44 3.603-2.01 2.707-3.658 5.658-5.477 8.492-1.512 2.345-3.133 4.544-4.373 7.061-1.213 2.454-2.336 5.016-3.205 7.614-1.131 3.358-.878 7.107-.317 10.547.534 3.277 1.44 6.49 2.571 9.605.29.806.598 1.602.933 2.39-1.268-3.676-2.254-7.478-2.852-11.316-.597-3.857-.86-7.994.58-11.706 1.303-3.35 2.688-6.754 4.626-9.786.706-1.114 1.511-2.164 2.245-3.269 1.095-1.647 2.118-3.331 3.168-5.006.969-1.548 1.956-3.096 3.07-4.544 1.095-1.422 2.362-2.825 3.992-3.63.733-.363 1.62-.634 2.453-.59.815.055 1.512.617 2.082 1.15 1.385 1.286 2.454 2.916 3.576 4.427 2.3 3.106 5.124 5.75 7.388 8.89.543.752 1.077 1.522 1.53 2.336.434.788.742 1.648 1.131 2.463.797 1.647 1.648 3.268 2.336 4.97 1.457 3.64 1.068 7.822.67 11.642-.408 3.938-1.105 7.876-2.128 11.706a43.724 43.724 0 0 1-.86 2.87c1.123-2.77 1.865-5.704 2.49-8.619.643-3.015 1.122-6.075 1.34-9.153.117-1.765.154-3.548-.037-5.314ZM23.71 84.42c-.1-.054-.172-.054-.262-.1-.743-.362-1.295-1.059-1.965-1.511-.208-.136-.063-.11-.262-.055-.145.036-.29.145-.417.208-.742.363-1.485.734-2.236 1.096-.263.127-.48.208-.67.416-.806.906-1.539 1.892-2.309 2.834-1.656 2.037-3.322 4.074-4.979 6.12 2.653-.86 5.251-1.92 7.74-3.169a40.268 40.268 0 0 0 4.12-2.354c.208-.135 3.006-2.2 2.933-2.281a25.59 25.59 0 0 1-1.195-.824c-.154-.126-.317-.28-.498-.38Zm-6.772-47.338c1.34 1.358 3.115 3.15 5.197 5.25l.054-.434c.208-1.784.28-3.549.67-5.305.082-.38.254-.716.136-1.087-.09-.29-.226-.57-.335-.85-.543-1.35-1.077-2.707-1.62-4.056-.996.995-1.992 1.982-2.979 2.978-.607.607-1.213 1.213-1.82 1.81-.108.11-.398.309-.452.453-.073.2.96 1.05 1.15 1.24Zm51.947.76c.117.86.208 1.72.253 2.58.027.507.082 1.005.136 1.512l.054.435c2.798-2.825 5.043-5.097 6.42-6.492a2228.088 2228.088 0 0 0-4.645-4.635c-.643 1.078-1.277 2.155-1.92 3.223-.19.326-.606.788-.687 1.159-.055.263.172.842.217 1.104.063.372.118.743.172 1.114Zm-23.61 36.357c-.598 0-.68 1.412-.688 1.82-.019.38.072.77.171 1.14.037.136.082.544.19.652.073.073.526.1.634.045.254-.126.1-1.502.09-1.828-.008-.29.064-1.829-.397-1.829Zm8.238-11.524-.109.108c.01-.009.082-.054.109-.108Zm-1.168 12.067c.009.109.063.308.036.417-.063.235-.371.335-.561.416.09-1.06-.344-2.254-.661-3.25.643.29.923.733 1.05 1.403.063.335.109.68.136 1.014Z" fill="#fff"/><path d="m48.244 77.177.018-.009c0-.009-.01-.018-.01-.027l-.008.036Zm-.516 10.248c-.227 0-.426.1-.58.254l-.833-.597.76-.562a.894.894 0 0 0 .59.236c.488 0 .823-.417.75-.915-.063-.47-.47-.833-.914-.833-.443 0-.778.363-.76.833.009.09.018.181.054.272l-.923.66-.924-.66c.028-.082.046-.172.055-.272.018-.47-.317-.833-.76-.833-.444 0-.852.363-.915.833-.064.498.271.915.751.915.218 0 .426-.09.589-.236l.76.562-.833.597a.78.78 0 0 0-.58-.254c-.497 0-.968.471-1.05 1.078-.09.652.29 1.204.852 1.204.552 0 1.032-.552 1.059-1.204a1.325 1.325 0 0 0-.027-.335l1.023-.76 1.023.76c-.027.108-.036.217-.027.335.027.652.507 1.204 1.068 1.204s.932-.552.842-1.204c-.082-.607-.552-1.078-1.05-1.078Zm2.526-12.303a7.24 7.24 0 0 0-.716-1.33c-.135-.209-.298-.408-.443-.598a1.044 1.044 0 0 0-.209-.2.303.303 0 0 0-.199-.053.53.53 0 0 0-.235.1.88.88 0 0 0-.2.207 1.154 1.154 0 0 0-.099.181c-.045.1-.09.218-.127.335l-.054.163a1.103 1.103 0 0 1-.163-.57c-.045.1-.081.2-.108.299l-.1.308.308.117c.09.037.425.19.751.715.136.209.136.815-.226 1.865.036.118.081.245.127.363l.135-.064.435-.199 1.44-.652.072-.036c-.027-.063-.046-.118-.073-.181-.117-.254-.217-.516-.316-.77Zm3.123-1.63a60.91 60.91 0 0 1-.136-1.158 1.961 1.961 0 0 0-.416-.444 1.18 1.18 0 0 0-.345-.199c-.018-.009-.027-.018-.045-.018-.036-.009-.063-.027-.1-.036-.09-.027-.18-.027-.27-.054-.1-.018-.2-.046-.372-.082.009-.045.018-.09.036-.127-.072.01-.136.028-.217.046-.172.036-.317.081-.407.108-.091.027-.145.046-.145.046l-.96.335.842.271a.495.495 0 0 1 .072-.136.443.443 0 0 1 .163-.153.83.83 0 0 0 .055.352c0 .01.009.028.009.037a.42.42 0 0 1 .09.045c.208.109.589.335.76.67.019.027.028.063.046.1.054.144.109.344.154.588.054.299.108.679.145 1.095l.027.335.317-.37.307-.363.064-.072v-.019a5.38 5.38 0 0 0-.136-.724c-.009-.036-.027-.072-.036-.108-.018-.046-.036-.1-.054-.145-.055-.145-.11-.299-.181-.435-.046-.09-.091-.18-.145-.271a4.475 4.475 0 0 0-.245-.38l.018-.019.028-.027a3.432 3.432 0 0 1 .678.887c.064.127.127.263.181.39.046.126.091.262.127.398.01.036.018.072.027.118l.037-.046.054-.063c.027.054 0-.1-.027-.371Zm-2.48 2.472.035-.018c-.018-.036-.027-.072-.045-.108.01.045.01.09.01.126Zm-4.32 1.856c.164 0 .264-.009.264-.009l.235-.109c-.018-.153-.027-.316-.036-.47-.055-.706-.154-1.394-.353-2.046a4.367 4.367 0 0 0-.399-.915 3.8 3.8 0 0 0-.326-.48c-.081-.099-.172-.199-.271-.28-.236-.2-.525-.308-.797-.28-.09.008-.19.026-.28.063-.046.018-.1.036-.145.063a.788.788 0 0 0-.344.362c-.01-.018-.01-.036-.01-.054a.694.694 0 0 1 .163-.516.66.66 0 0 1 .163-.154l-.054.027-.09-.697-.49 1.222c-.09.236-.18.616-.253 1.15a13.405 13.405 0 0 1 .163 1.648v.018l.027.597c.01.29 0 .589-.054.887.163 0 .362.01.58.01h.724l-.036-.11c-.272-.832-.399-1.538-.335-1.918.009-.073.027-.154.036-.254.054-.362.136-.969.326-1.204.09-.118.208-.181.316-.181.163 0 .227.163.254.253.19.788.163 2.626.145 3.377v.018c.117 0 .235 0 .344-.009.081 0 .163 0 .235-.009l.027-.136c.046-.262.064-.525.064-.787 0-.263-.036-.534-.082-.797a4.012 4.012 0 0 0-.226-.778l.054-.028c.109.163.2.344.272.526.036.072.063.153.09.226a3.828 3.828 0 0 1 .154 1.684l-.054.09Zm-5.974-2.172s0-.01 0 0a20.875 20.875 0 0 1-.263-1.34c-.063-.39-.108-.915-.135-1.576-.01-.162-.01-.316-.018-.461-.01-.19-.01-.353-.01-.471v-.208l-.353-.073c0 .036 0 .064-.009.1-.009.072-.009.154-.018.226-.018.154-.036.308-.063.462-.01.027-.01.063-.01.09-.026.181-.044.363-.063.544-.018.208-.036.425-.045.633-.009.136-.009.272-.018.408-.009.29-.018.58-.009.869 0 .136.009.271.009.407.081.064.163.118.245.181.135.1.28.2.416.308.109.082.226.163.335.245.009-.118.009-.236.009-.345Zm-1.44-10.937a8.105 8.105 0 0 0-.081-.633 9.3 9.3 0 0 0-.434-.969c-.055-.1-.118-.208-.173-.308-.009-.018-.018-.027-.027-.045a5.346 5.346 0 0 0-1.005-1.159c-.117-.108-.244-.199-.37-.299.063.163.126.335.19.535.18.226.325.47.47.715a9.798 9.798 0 0 1 .797 1.774l-.055.027c-.018-.036-.036-.063-.054-.1-.136-.253-.262-.506-.407-.75a15.26 15.26 0 0 0-.507-.816c-.01-.018-.018-.027-.027-.045.163.824.271 1.92.335 3.096.063 1.141.081 2.372.081 3.522v1.096l.317.063c.335-.824 1.086-2.979 1.005-5.115a23.228 23.228 0 0 1-.055-.589Zm3.785-6.038h-.01s-.307 1.222-.09 1.847c.416 1.186 1.231 2.055 1.937 2.073h.028c.253 0 .488-.1.67-.29.172-.18.29-.434.37-.706.236.371.562.688.96.688.688 0 1.114-.85 1.367-1.494.073-.18.136-.362.2-.552.633-2.091-.163-3.386-.67-4.11-.218-.308-.589-.47-.589-.47l-.009.008c.109.163.208.326.299.498.335.598.58 1.232.652 1.684.108.643.108 1.367-.145 1.874l-.054.236c-.028.1-.055.199-.091.29a4.087 4.087 0 0 1-.733 1.24l-.037-.028-.018-.018c.263-.389.471-.814.598-1.267.009-.018.009-.036.009-.055-.19.154-.435.254-.742.281-.725.054-.96-1.313-1.032-2.498 0-.055-.01-.11-.01-.154a16.042 16.042 0 0 1-.009-1.476c-.009.181-.036.806-.108 1.503 0 .027-.01.063-.01.09-.072.752-.19 1.557-.361 1.974-.263.634-1.114.815-1.666.054-.163-.217-.299-.516-.38-.914-.019-.1-.046-.2-.055-.299a4.15 4.15 0 0 0 .172 1.485c0 .009.01.027.01.036.153.507.416.978.75 1.394l-.045.045a3.964 3.964 0 0 1-.86-1.33 4.16 4.16 0 0 1-.29-1.639c-.008.01-.008.01-.008 0Zm-.969 14.63c-.1.163-.19.308-.272.47-.163.29-.262.607-.353.924-.081.326-.145.652-.199.996-.027.199-.054.407-.117.615 1.086.788 2.055 1.476 2.154 1.512.027.01.1.018.2.018a4.479 4.479 0 0 1-.209-.833 18.79 18.79 0 0 1-.163-1.222c-.045-.407-.063-.823-.09-1.222-.01-.199-.037-.398-.028-.597 0-.064.01-.118.01-.181.008-.145.027-.3.072-.462.027.018.045.045.063.063.09.1.163.208.218.317.009-.1.027-.2.054-.299l-.127-.036.181-.109c-.072-.199-.308-.787-.887-.787-.109 0-.235.027-.353.072l-.118.046s-.18.307-.244.407c-.01.018-.018.036-.036.054.154-.1.325-.163.507-.18-.091.162-.181.298-.263.434Zm36.022 11.506c-.009-.009-.009-.018-.018-.027-.244-.47-.489-.941-.76-1.412-.019-.037-.037-.064-.055-.1-.081-.145-.163-.29-.253-.443l-.073-.127c-.09-.154-.19-.317-.28-.47-.145-.236-.29-.48-.444-.716-.09-.136-.172-.272-.262-.407-.037-.064-.082-.118-.118-.182-.227-.344-.47-.688-.715-1.023a24.283 24.283 0 0 0-1.132-1.385c-.145-.163-.299-.344-.462-.525-.299.49-.588.969-.887 1.422a.068.068 0 0 0-.018.036c-.77 1.186-1.512 2.209-2.182 2.942-.081.09-.163.172-.235.254l10.22 10.202 1.25.76s-.072-.253-.226-.705A55.91 55.91 0 0 0 78 84.809ZM85.96 17.7a1.378 1.378 0 0 0-1.956 0 1.382 1.382 0 0 0 .978 2.354 1.382 1.382 0 0 0 .978-2.354Zm1.15 3.087a2.986 2.986 0 0 1-2.001.87c-.046 0-.082.008-.127.008-.109 0-.208-.009-.317-.018-.136-.018-.272-.036-.398-.072a3.058 3.058 0 0 1-1.413-.788 2.979 2.979 0 0 1-.787-1.412 3.07 3.07 0 0 1-.073-.399 2.33 2.33 0 0 1-.009-.434 2.955 2.955 0 0 1 .879-2 2.994 2.994 0 0 1 2.127-.879c.77 0 1.54.29 2.128.878a3.02 3.02 0 0 1-.01 4.246Zm-5.613-.896a584.28 584.28 0 0 1-4.753 4.237c.271.208.525.434.787.651.281.245.562.49.842.743.28.253.552.507.824.76l.407.39.064.054c.244-.28.498-.57.76-.86l-.027-.036-.353-.363c-.235-.244-.462-.488-.688-.733-.226-.244-.453-.498-.679-.751-.217-.254-.444-.516-.652-.779-.018-.018-.009-.054.01-.063.017-.01.045-.01.054 0 .271.208.525.425.787.643a54.273 54.273 0 0 1 1.503 1.349l.362.344.01.009c.253-.29.515-.58.76-.851l-.3-.308c-.207-.218-.406-.435-.615-.661-.199-.226-.398-.444-.597-.68-.19-.225-.39-.46-.57-.705-.019-.018-.01-.055.008-.064a.057.057 0 0 1 .055 0c.244.181.48.372.706.562.235.19.462.389.688.588.226.2.444.407.67.607l.299.28c.262-.298.525-.588.77-.85l-.218-.227a16.56 16.56 0 0 1-.534-.588c-.172-.2-.353-.399-.516-.598a16.718 16.718 0 0 1-.498-.625c-.018-.018-.01-.054.009-.063a.058.058 0 0 1 .054 0c.218.154.426.326.634.489.208.172.407.335.606.516.2.172.399.353.589.534l.217.2c.299-.336.57-.634.797-.888a3.659 3.659 0 0 1-1.385-.87 3.59 3.59 0 0 1-.887-1.393ZM72.07 75.494c1.422-2.48 2.816-5.206 3.748-7.089a4.597 4.597 0 0 0-.226-4.481c-2.227-3.53-6.518-11.018-8.22-18.613-.027-.136-.064-.263-.09-.399l-.082-.407a28.586 28.586 0 0 1-.516-3.947 26.262 26.262 0 0 0-.371-3.25 30.012 30.012 0 0 0-1.784-6.247 3.898 3.898 0 0 0-.145-.344c-.045-.117-.1-.226-.145-.335-3.376-7.794-9.94-13.932-17.96-13.932-6.718 0-14.558 6.328-18.686 14.285l-.163.326-.163.326c-.933 1.92-1.648 3.93-2.082 5.957a20.694 20.694 0 0 0-.435 3.232 29.275 29.275 0 0 1-.507 3.91l-.081.408c-.028.136-.064.263-.09.399-1.694 7.613-6.003 15.118-8.23 18.649a4.596 4.596 0 0 0-.226 4.481c.932 1.892 2.335 4.626 3.766 7.116.063.1.117.208.18.308.064.108.118.208.182.308 1.095 1.864 2.19 3.548 3.096 4.544.145.154.28.299.407.416.661.607 2.137 1.603 4.029 2.78.1.063.199.127.308.19l.298.19c6.51 3.992 17.12 9.75 17.799 10.121v.019s.009 0 .018-.01c.009.01.018.01.018.01v-.019c.679-.37 11.316-6.138 17.825-10.14.1-.062.2-.126.3-.19.099-.063.207-.126.307-.19 1.874-1.167 3.34-2.154 4.001-2.76.136-.127.281-.272.435-.444.905-1.005 2-2.68 3.096-4.554.063-.1.118-.208.181-.307.09-.11.145-.218.208-.317Zm.879 1.973c-1.096 1.838-2.173 3.422-3.097 4.436-.063.063-.117.127-.172.19l-.154.154-.009.01c-.045.044-.1.099-.144.135a7.295 7.295 0 0 1-.625.516c-.245.19-.534.398-.851.616-.145.1-.299.208-.462.317-.38.253-.797.534-1.24.823-.045.028-.082.055-.127.082-.027.018-.054.036-.09.054-.046.027-.09.054-.136.09-.064.046-.136.091-.2.127-.035.028-.08.046-.117.073-.1.063-.2.127-.308.19l-.299.19s-.009 0-.009.01c-.217.135-.443.27-.67.415-.262.163-.525.317-.787.48-.172.1-.335.209-.507.308-.1.063-.208.127-.317.19-.507.299-1.023.607-1.557.924-.29.172-.589.344-.878.516l-.897.516c-.153.09-.298.172-.452.262-.299.172-.598.344-.905.516-.607.344-1.204.688-1.802 1.023-.299.172-.597.335-.887.498-.29.163-.589.326-.878.49-.435.244-.86.479-1.277.714-.28.154-.552.308-.824.453-.217.127-.434.244-.651.362-.091.054-.182.1-.272.154-.208.118-.416.235-.616.344-.489.272-.96.525-1.385.76-.217.118-.425.236-.624.344-.444.245-.842.462-1.195.652l-.245.136c-.181.1-.344.181-.48.263a.902.902 0 0 1-.154.1c-.28.162-.588.244-.896.244h-.036c-.236 0-.462-.046-.688-.136a.915.915 0 0 1-.208-.109c-.055-.036-.109-.063-.154-.1-.643-.343-1.639-.896-2.88-1.575-1.683-.923-3.801-2.1-6.02-3.35-.443-.253-.896-.506-1.34-.76-.597-.344-1.203-.688-1.8-1.032-.155-.09-.3-.172-.453-.262l-.897-.516a203.687 203.687 0 0 1-4.707-2.816l-.299-.19a3.322 3.322 0 0 0-.235-.145c-.018-.018-.046-.027-.064-.045-.154-.1-.308-.2-.461-.29a4.486 4.486 0 0 1-.345-.226c-1.312-.851-2.353-1.575-2.95-2.1a1.154 1.154 0 0 0-.118-.1c-.145-.136-.29-.28-.444-.444-.01-.009-.01-.018-.018-.018-.76-.833-1.62-2.055-2.517-3.485a27.007 27.007 0 0 1-.326-.525c-.081-.136-.172-.28-.253-.417a5.48 5.48 0 0 1-.181-.307c-.064-.1-.118-.209-.181-.308-.181-.308-.363-.634-.544-.95-.18-.318-.353-.635-.534-.951-.262-.48-.534-.97-.787-1.458-.354-.652-.688-1.313-1.023-1.955-.308-.607-.616-1.204-.906-1.793-.1-.19-.19-.39-.29-.58a6.336 6.336 0 0 1-.362-4.716c.118-.39.281-.76.471-1.123.064-.117.136-.235.208-.353.227-.362.49-.778.77-1.24.09-.154.19-.317.29-.48.29-.498.606-1.032.932-1.611a77.95 77.95 0 0 0 1.53-2.86c.1-.2.2-.4.299-.607.308-.616.606-1.24.905-1.892.145-.326.299-.652.444-.987.19-.435.38-.87.561-1.313.136-.335.272-.67.398-1.014.109-.29.227-.58.335-.878.752-2.064 1.386-4.2 1.784-6.328.027-.136.045-.28.072-.417.027-.135.055-.28.073-.416.036-.245.072-.489.1-.733v-.01c.072-.588.126-1.167.162-1.738.018-.37.055-.751.09-1.122.037-.38.091-.752.155-1.132.09-.57.199-1.14.335-1.71.045-.209.1-.417.154-.626l.135-.516c.254-.896.552-1.783.906-2.67.027-.054.045-.118.072-.172.072-.19.154-.38.235-.561.245-.562.498-1.123.779-1.684.027-.064.063-.118.09-.181.055-.109.11-.218.163-.317.055-.109.11-.208.172-.317a32.716 32.716 0 0 1 3.332-5.006c.425-.535.869-1.05 1.33-1.558.48-.534.979-1.04 1.486-1.53a28.454 28.454 0 0 1 2.018-1.783c.462-.371.924-.724 1.395-1.06.47-.334.941-.642 1.412-.94.163-.1.317-.19.48-.29.163-.09.316-.181.48-.272 2.607-1.448 5.15-2.218 7.586-2.309.163-.008.326-.008.489-.008.362 0 .724.008 1.086.036.362.027.724.054 1.077.1.181.026.362.045.535.072.534.081 1.068.199 1.593.326a18.548 18.548 0 0 1 5.07 2.154 21.568 21.568 0 0 1 1.9 1.295c.924.706 1.82 1.512 2.671 2.399.57.588 1.114 1.222 1.648 1.892a27.172 27.172 0 0 1 1.15 1.557c.145.217.29.426.434.652.145.217.28.444.426.67.208.335.398.679.597 1.014.38.688.743 1.394 1.078 2.118.009.027.027.055.036.09.054.11.1.227.154.336.054.108.1.226.144.335.028.063.055.126.082.18.036.091.072.182.118.272.063.145.117.29.172.426.145.37.29.742.416 1.122.136.372.263.752.38 1.132.064.19.118.38.172.57.109.38.218.77.317 1.15.1.39.19.779.272 1.168 0 .018.009.027.009.045.081.371.154.752.217 1.123.036.199.064.389.1.588l.108.733c.09.725.163 1.458.2 2.182v.073a23.6 23.6 0 0 0 .344 2.897c.027.136.045.28.072.416.244 1.33.588 2.662.996 3.974.072.236.145.48.226.716.154.461.308.923.47 1.376.164.443.327.887.499 1.321.145.38.299.752.453 1.123.171.416.344.824.525 1.222.108.254.226.507.344.752.344.742.688 1.466 1.04 2.163.345.697.698 1.358 1.033 1.983.561 1.05 1.104 2 1.593 2.824.39.661.752 1.24 1.05 1.72.145.236.272.471.39.716.108.244.208.498.29.751a6.451 6.451 0 0 1-.362 4.726c-1.214 2.444-2.654 5.232-4.075 7.659-.063.108-.118.208-.18.307-.155.082-.218.19-.281.29Zm-14.72-30.5c-.064-.154-.426-.37-.86-.534-.046-.027-.091-.045-.128-.072a2.59 2.59 0 0 0-.434-.181c-.561-.181-1.177-.181-1.738-.064a5.524 5.524 0 0 0-1.585.652c-.488.29-.941.625-1.376.978l.037.054c.47-.298.941-.606 1.43-.86.489-.253 1.005-.461 1.539-.552.2-.036.398-.054.597-.054-.552.307-.986 1.068-1.991 1.285-1.259.272-2.48 1.114-3.033 1.865-.552.752-1.937.878-1.937.878-.018.344.045.643.136.878l.018.11c.054.253.144.497.262.723.027.046.054.1.082.145.1.172.226.326.362.471.145.145.308.28.489.38.036.018.072.045.108.064l.036-.055a2.929 2.929 0 0 1-.832-1.122v-.01c.027.019.054.037.081.064.136.082.299.163.462.244.045.055.081.109.127.163a3.982 3.982 0 0 0 .706.652c.262.19.534.353.833.462l.027-.054a4.937 4.937 0 0 1-.743-.553c-.036-.036-.072-.081-.117-.117-.109-.109-.218-.218-.317-.335.163.063.326.117.489.163.244.081.48.135.66.172.643.135 2.137-.01 2.888-.082a6.802 6.802 0 0 0 1.25-.253c-.263.28-.57.534-.897.733a4.75 4.75 0 0 1-1.086.507l.018.063a4.167 4.167 0 0 0 1.168-.407c.371-.2.706-.444 1.014-.733.136-.127.253-.263.371-.399.172-.09.317-.18.408-.29.344-.398.95-1.15 1.367-2.29.416-1.15.235-2.408.108-2.689ZM44.06 50.371c.073-.199.145-.47.145-.77 0-.398-.127-.742-.217-.94l-.09-.182s-.055.09-.118.245a2.397 2.397 0 0 0-.181.869 2.384 2.384 0 0 0 .298 1.122s.09-.126.163-.344Zm18.296-1.792c.019.262.028.525.01.797l-.028.316a7.703 7.703 0 0 1-.172.86c-.027.1-.063.2-.09.3-.127.38-.299.742-.507 1.086l.054.036c.254-.317.462-.68.634-1.06l.108-.271a8.489 8.489 0 0 1-.226 1.557c-.072.299-.154.498-.244.643-.018.009-.027.027-.046.036-.307.226-.688.371-1.068.57-.072.037-.154.082-.226.118a3.484 3.484 0 0 0-.344.208c-.073.046-.145.1-.208.154-.018.018-.037.036-.055.045l-.253-.199c.054-.108.108-.208.172-.307l-.027-.897c0-.072-.01-.136-.01-.208-1.385 1.159-3.766 2.761-6.246 2.761a5.513 5.513 0 0 1-1.992-.371c-.117-.045-.244-.1-.37-.145a12.567 12.567 0 0 1-.87-.38 28.898 28.898 0 0 1-.561-.263c-.145-.072-.28-.144-.426-.217-.47-.244-.905-.498-1.276-.751a5.774 5.774 0 0 0-1.666-.752l-.453-.126-.461-.055a6.206 6.206 0 0 0-1.82.072 9.61 9.61 0 0 0-.597.146l-.028.009c-.307.1-.579.226-.778.326-.109.054-.208.108-.317.163-.326.162-.652.334-1.014.461a4.713 4.713 0 0 1-.489.145c-1.892.416-3.404.607-4.762.607-.633 0-1.231-.046-1.828-.127 0 .009 0 .009-.01.018-.045.127-.081.244-.117.362-.036.127-.082.244-.118.362-.1.326-.19.625-.253.887.688.616 2.055 1.856 2.933 2.617.09.081.18.154.262.226.1.081.19.163.263.217.48.399 1.023 1.331 1.485 2.562l-.263.181-.054-.054c-.046-.036-.082-.081-.127-.118a4.216 4.216 0 0 0-1.494-.87 1.554 1.554 0 0 0-.85-.325c-.155-.018-.318-.018-.48-.018-.163 0-.327.01-.49.01-.172 0-.343-.01-.516-.037-.986-.163-1.729-.1-2.417-.38-.235-.1-.47-.236-.706-.435a3.368 3.368 0 0 1-.253-.253c-.716-.815-.933-2.118-.444-3.368.073-.19.118-.362.145-.534a.07.07 0 0 1 .018.036c.254.462.226 1.005.2 1.557-.01.281-.01.562.044.842.046.254.145.498.3.706.017.018.026.046.045.064l.045-.036a1.628 1.628 0 0 1-.272-.742 4.11 4.11 0 0 1 .018-.815 6.39 6.39 0 0 0 .046-.843 2.326 2.326 0 0 0-.19-.85c-.073-.172-.163-.326-.245-.48-.045-.589-.299-1.132-.489-1.81 0-.128 0-.254.01-.381a.82.82 0 0 0-.064-.407c.045.072.09.153.136.226.235.39.507.76.887 1.059a3.537 3.537 0 0 0-.181-.724 4.794 4.794 0 0 0-.254-.589c-.027-.063-.063-.126-.09-.18-.109-.227-.218-.453-.335-.68a.275.275 0 0 1 .072-.072c.082-.082.154-.172.236-.254a33.684 33.684 0 0 0 3.548-4.707c.01-.01.01-.018.019-.018l-.055.108c-.108.218-.199.48-.244.76-.018.037-.046.073-.055.11-.045.117-.09.235-.126.352-.073.236-.127.48-.163.734-.064.498-.046.996.054 1.485.109.488.299.95.552 1.367.163.262.362.515.58.733.126.127.253.244.389.353l.045-.045a4.979 4.979 0 0 1-.842-1.14 4.368 4.368 0 0 1-.452-1.332 4.437 4.437 0 0 1 .027-1.539c.018.1.045.2.072.299.299.996.58 1.847 1.132 2.508.39.47.905.85 1.666 1.113 1.077.38 2.362.335 3.395.245.036 0 .081-.01.117-.01-.027.019-.054.037-.072.046-.163.108-.326.199-.498.28-.208.109-.435.181-.661.254l.01.063a3.181 3.181 0 0 0 1.349-.407c.017-.01.035-.018.062-.027a6.05 6.05 0 0 0 .399-.263c.244-.027.461-.045.642-.045a4.966 4.966 0 0 1-.516.326 5.315 5.315 0 0 1-.389.208 6.761 6.761 0 0 1-.833.353c-.425.154-.86.263-1.312.344l.009.063c.461-.018.914-.1 1.358-.217.036-.009.072-.027.108-.036.29-.09.57-.19.851-.317.109-.054.227-.1.335-.163.326-.163.634-.362.924-.58.787-.162 1.9-1.348 1.9-1.348s-1.05.136-2.181-1.05c-1.132-1.186-1.965-2.472-3.096-2.526-.399-.018-.978-.236-1.557-.516a22.99 22.99 0 0 1-1.775-.95c.045.008.082.008.127.017a8.01 8.01 0 0 1 1.793.543L37 46c.271.117.534.253.806.389l.036-.054a6.725 6.725 0 0 0-.743-.507.188.188 0 0 1-.054-.036 4.07 4.07 0 0 0-.344-.172 9.543 9.543 0 0 0-.534-.236 6.525 6.525 0 0 0-.933-.28 8.907 8.907 0 0 0-.48-.091c-.108 0-.217-.045-.325-.027.244-.371.489-.742.733-1.105.66-.977 1.34-1.91 2.019-2.788l.217-.272.217-.271c1.422-1.784 2.87-3.34 4.328-4.663.208.245.262.172.262.172.634.281 1.186.688 1.639 1.096.66.597 1.62.688 2.408.271.335-.171.697-.325 1.041-.488-.063.18-.127.362-.172.552a6.276 6.276 0 0 0-.19 1.693c0 .127.01.262.027.39.01.117.036.243.055.361.027.127.063.254.108.371h-.072v-.018l-.09-.009c-1.087-.172-2.31-.833-3.296-1.358-.417-.226-.933-.498-1.168-.57-.181.272-.561.815-1.05 1.539-.47.679-1.032 1.494-1.593 2.336.1.117.18.235.244.335.054.09.09.163.109.244.018.063.1.29.326.679a8.64 8.64 0 0 0 2.145 2.417c.398.308.688.67.86 1.087.136.325.2.688.2 1.059.09-.037.19-.064.289-.109.054-.018.118-.036.181-.054.154-.045.308-.073.48-.1.163-.018.326-.027.489-.036h.072c.145 0 .299.009.48.018h.072c-.027.118-.063.226-.09.335-.036.118-.073.235-.109.335-.009.018-.009.036-.018.045-.045.127-.09.254-.136.353a1.418 1.418 0 0 1-.172.317c-.036.045-.063.073-.1.082-.289.136-.615.561-.832.878-.136.208-.227.362-.227.362s.1.045.236.118c.09.045.2.108.317.172.262.154.552.362.715.588.045.064.09.136.109.2 0 .008 0 .008.009.017a.671.671 0 0 0 1.032.326.632.632 0 0 0 .208-.29v-.008c.1-.281.208-.517.308-.67a.46.46 0 0 1 .126-.154.643.643 0 0 1 .127-.09 1.56 1.56 0 0 1 .335-.146c.398-.117.797-.1.797-.1s-.344-.66-.76-1.05c-.308-.28-.707-.262-.761-.443a4.35 4.35 0 0 1-.09-.326c-.01-.018-.01-.036-.019-.054a18.618 18.618 0 0 1-.081-.335c0-.01 0-.018-.01-.027-.026-.118-.054-.236-.072-.353l.127.009.027.009c.145.018.29.045.435.063.244.036.48.081.706.127.335.063.652.117.905.154.027 0 .054.009.082.009.516 0 1.258-.534 2.2-1.222.869-.625 1.955-1.413 3.277-2.064.398-.2.824-.326 1.25-.372l-4.048-5.558c-.597.235-2.145.842-3.603 1.258-.18.054-.38.082-.597.082h-.01l.01.036-.064-.01c.01-.126.018-.244.018-.37.01-.118.01-.227.019-.344l.027-.426a8.154 8.154 0 0 1 .271-1.548c.109-.416.254-.833.426-1.231.806-.724.66-1.277 1.159-1.403.045-.01.09-.028.145-.046a5.94 5.94 0 0 1-.11.236c-.144.335-.27.679-.388 1.032-.11.353-.2.706-.272 1.068a7.372 7.372 0 0 0-.118 1.095l.064.01a10.413 10.413 0 0 1 .58-2.082c.135-.336.27-.662.425-.988.072-.162.153-.325.235-.48l.045-.08c.245-.119.507-.254.743-.39 1.62 1.24 3.25 2.797 4.861 4.644.072.09.154.172.226.263.073.09.154.172.227.262a52.134 52.134 0 0 1 3.476 4.644c.263.39.516.788.779 1.186.09.145.19.29.28.444.181.299.371.58.552.86.154.226.308.453.462.67l-.154.47-.126.38c-.127.381-.236.761-.236 1.205a2.68 2.68 0 0 0 .598-.77c.009.19.009.38.009.58a7.842 7.842 0 0 1-.055.806l-.027.217-.081.58v.017l.063.019c.018-.046.036-.1.055-.145.072-.209.135-.435.19-.652 0-.01.009-.027.009-.036.054-.263.1-.526.126-.788.027-.28.037-.561.037-.833 0-.127-.01-.244-.019-.371.01-.01.01-.027.019-.036.027.009.045.018.072.018.127.154.272.344.407.525Zm-1.303 7.885a11.576 11.576 0 0 0-.245-1.068c-.108-.417-.217-.797-.244-1.114a2.14 2.14 0 0 0-.362.254l-.136.108a2.217 2.217 0 0 0-.344.426c-.027.045-.063.09-.09.136-.019.036-.046.063-.064.108-.045.09-.09.181-.145.3-.108-.137-.145-.318-.145-.49 0 .01-.009.01-.009.018l-.009.018c-.045.091-.1.19-.154.317l-.217.49h.76c.091.244.236.696.254 1.203-.788.76-1.467 1.331-2.028 1.702l-.145.1c-.37.244-.697.462-1.005.67-.1.063-.199.136-.29.199-.099.072-.198.136-.289.208l-.733.534.163.29c.018-.01.036-.01.045-.018.29-.109.57-.163.833-.19.063-.01.136-.01.199-.018.163-.01.326-.01.489 0 .1 0 .19.009.28.009.073 0 .145.009.218.009.606.018 1.186-.027 1.837-.534 1.666-1.313 1.64-1.286 1.64-2.852.008-.29-.019-.552-.064-.815Zm-9.289 7.985-.29-.127c-1.991 2.617-.244 5.885.399 6.908a.51.51 0 0 1 .118-.073c.063-.036.136-.045.208-.063.081-.01.154-.01.235-.01a.69.69 0 0 1 .19.028c.19.045.372.127.535.244-.154-1.783-.272-4.182-.064-6.192.064-.643.163-1.25.308-1.783a5.068 5.068 0 0 0-.453.814c-.09.19-.163.39-.235.589-.045.127-.082.262-.118.39-.09.334-.145.687-.18 1.04h-.064c-.027-.362 0-.724.054-1.077.027-.181.072-.362.118-.543.045-.172.1-.344.172-.507.108-.28.235-.543.39-.806a2.87 2.87 0 0 1 .108-.172l.154-.226.054-.073.018-.018-.018-.018c-.136.136-.272.272-.39.416 0 .01-.008.01-.008.019l-.272.353c-.172.244-.317.516-.462.778-.018.027-.027.054-.045.082-.163.299-.308.597-.498.923-.009-.045-.009-.09-.018-.127a2.497 2.497 0 0 1 .036-.688c0-.036.01-.063.018-.081ZM19.02 79.613c-.009-.01-.009-.018-.018-.037a52.352 52.352 0 0 1-.968-1.548c-.734.824-1.268 1.458-1.576 1.883-1.122 1.549-2.109 3.232-2.96 4.88a58.465 58.465 0 0 0-2.363 5.296c-.018.045-.036.082-.045.127-.054.127-.1.262-.145.38-.081.217-.163.426-.235.625-.037.09-.064.18-.09.262-.037.1-.073.209-.11.299-.063.181-.117.344-.171.498-.037.1-.073.2-.1.29-.018.045-.027.09-.045.135-.018.064-.037.127-.064.181-.009.019-.009.046-.018.064-.009.036-.027.072-.036.109-.018.072-.045.135-.063.19-.073.226-.109.353-.109.353s.127-.036.353-.109c.054-.018.118-.036.19-.063.055-.018.109-.037.172-.055l10.746-10.718c-.081-.082-.154-.163-.235-.254-.652-.688-1.367-1.657-2.11-2.788Zm56.827-51.947c.325.3.651.607.977.915l.48.461.19.181c.217-.262.462-.552.743-.869l-.136-.145-.426-.434c-.28-.299-.57-.588-.85-.887-.282-.299-.553-.598-.834-.905l-.597-.68c-.426.372-.815.698-1.14.96l.597.516c.335.29.67.589.996.887Zm-55.858 3.975-.489.489 3.567 3.566c.036-.126.064-.253.1-.389a29.6 29.6 0 0 1 1.982-5.17c.01-.008.01-.026.018-.035l.272-.535c-.66-.642-1.222-1.204-1.702-1.674L19.99 31.64Zm-4.065-3.676c-.307.326-.615.643-.923.969l-.47.48-.218.217c.054.072.108.136.154.19.235.299.452.561.652.778l3.331-3.322c-.217-.2-.48-.416-.778-.652-.091-.072-.2-.154-.308-.244-.181.199-.353.407-.534.606-.29.326-.598.652-.906.978Zm-1.258-1.077c-.28.298-.561.597-.851.887l-.425.434-.136.145.742.87.19-.182.48-.461c.326-.308.652-.616.978-.915.326-.298.66-.597.996-.896l.597-.516c-.326-.263-.706-.598-1.14-.96l-.598.68c-.272.316-.552.615-.833.914Zm62.348 2.933c.046-.063.1-.127.154-.19l-.217-.217-.47-.48c-.309-.317-.616-.643-.924-.969a46.495 46.495 0 0 1-.906-.987c-.18-.199-.362-.398-.534-.606-.108.09-.217.172-.308.244-.307.236-.56.453-.778.652l3.331 3.322c.2-.208.417-.47.652-.77Zm-61.66 1.512-.244.244-4.545 4.545 1.982 1.973 2.228-2.227 4.48-4.472 3.993-3.983.49-.489 2.226-2.218-1.973-1.983-5.034 5.025-3.35 3.34-.253.245Zm51.05-2.128a30.942 30.942 0 0 1 1.177 3.087c0 .01 0 .01.01.018.316.96.579 1.929.805 2.916.027.135.054.262.09.398l3.504-3.495-.489-.488-3.757-3.748c-.38.38-.833.814-1.34 1.312ZM13.408 25.81c-.254.272-.507.544-.77.815l-.39.399-.08.081c.262.299.515.588.75.86l.118-.118.444-.425c.299-.28.598-.561.896-.833.299-.272.607-.552.915-.824.226-.19.452-.39.679-.58a74.079 74.079 0 0 1-1.15-.995c-.217.262-.444.525-.67.788-.236.29-.489.56-.742.832ZM34.23 45.247c-.046.073-.1.145-.145.227a2.11 2.11 0 0 1 .172-.2 6.963 6.963 0 0 1-.027-.027Zm-4.545 6.392c0 .036.009.072.018.1l.118.018c-.046-.082-.1-.154-.145-.236 0 .045.009.082.009.118Zm8.736 20.378a7.28 7.28 0 0 1 .109-.642l-.326-.797-.317.063v.073c0 .307-.009.597-.009.869-.018 1.059-.045 1.874-.045 2.209v.153l.19.145c.072.055.163.127.28.209.073.054.154.108.236.172a4.609 4.609 0 0 1-.064-.344 3.403 3.403 0 0 1-.054-.426c0-.018-.009-.036-.009-.063l-.027-.399c-.01-.145-.01-.29-.01-.443 0-.118 0-.227.01-.344 0-.145.018-.29.036-.435Zm.317.263.027-.218.01-.09-.182-.444a8.82 8.82 0 0 0-.018.851v.082c0 .19.018.371.027.561.01.145.027.29.055.435v.036c.009.036.009.072.018.109.018.09.036.18.045.271.054.29.108.57.19.842 0 .018.01.027.018.045l.109.082a7.08 7.08 0 0 1-.036-1.24v-.073c0-.027.009-.054.009-.081a5.47 5.47 0 0 1 .045-.38c.018-.1.027-.2.045-.29l-.217-.525-.145.027Zm29.25-45.112.245.245 3.992 3.983 6.709 6.7 1.982-1.974-5.033-5.025-3.35-3.34-.244-.245-.245-.244-4.544-4.545-1.983 1.974 2.471 2.471Zm-60.51-9.47a1.378 1.378 0 1 0-1.956 1.947 1.378 1.378 0 0 0 1.956 0 1.366 1.366 0 0 0 0-1.946Zm1.159 3.088c-.408.407-.897.66-1.413.788a3.071 3.071 0 0 1-.398.072c-.109.01-.208.018-.317.018-.036 0-.081 0-.118-.009a2.994 2.994 0 0 1-2-5.115 2.995 2.995 0 0 1 2.127-.878c.77 0 1.54.29 2.128.878.552.552.842 1.277.878 2 .009.146 0 .29-.01.435a3.07 3.07 0 0 1-.072.399 3.167 3.167 0 0 1-.805 1.412Zm68.468 5.812c.299.28.597.552.896.833l.444.425.117.118.752-.86-.082-.081-.389-.399c-.263-.271-.516-.543-.77-.814a32.638 32.638 0 0 1-.75-.833c-.227-.263-.453-.516-.67-.788-.4.353-.788.688-1.15.996.226.19.452.38.678.58.317.27.625.542.924.823ZM9.93 23.982l-.299.28a40.18 40.18 0 0 0-.77-.85l.218-.227c.181-.19.362-.39.534-.588.172-.2.353-.399.525-.598.172-.208.335-.407.498-.624a.058.058 0 0 0 0-.055c-.018-.018-.045-.027-.063-.009-.217.154-.425.326-.634.489-.208.172-.407.335-.606.516-.2.172-.399.353-.589.534l-.217.2c-.299-.336-.57-.634-.797-.888a3.661 3.661 0 0 0 2.255-2.254c1.086.978 3.032 2.725 4.752 4.237-.262.208-.525.434-.787.652-.28.244-.562.488-.842.742-.28.253-.552.507-.824.76l-.407.39-.064.054c-.253-.28-.507-.57-.76-.86l.027-.036.353-.363A50.266 50.266 0 0 0 12.801 24c.217-.254.444-.516.652-.779a.057.057 0 0 0 0-.054c-.018-.018-.045-.027-.063-.01-.272.21-.526.426-.788.644a54.88 54.88 0 0 0-1.503 1.349l-.362.344-.01.009c-.253-.29-.515-.58-.76-.851l.3-.308c.207-.217.416-.435.615-.661.199-.226.398-.444.597-.679.19-.226.39-.462.57-.706a.058.058 0 0 0 0-.054c-.018-.019-.045-.028-.063-.01-.244.182-.48.372-.706.562-.235.19-.462.39-.688.588-.217.19-.444.39-.66.598Z" fill="#fff"/><path d="M6.51 16.368a2.283 2.283 0 0 0-2.246 1.494c-.299.815-.054 1.865.743 2.308-.517-.887-.562-2.082.19-2.851.751-.77 1.973-.779 2.815-.154-.344-.471-.923-.76-1.503-.797Zm5.866 19.736c.869-1.005 1.729-2.02 2.598-3.024.842-.987 1.684-1.965 2.535-2.951l1.276-1.494-2.978 2.924-3.178 3.123-1.448 1.422 1.276 1.276a30.195 30.195 0 0 1-.081-1.276Zm63.407-4.445c-.887-.87-1.765-1.739-2.652-2.608-.136-.135-.28-.271-.417-.407l2.807 3.268c.923 1.068 1.838 2.146 2.76 3.214.191.226.381.444.571.67.073.081.236.208.263.317.018.054-.01.163-.01.217l-.026.444c-.01.199-.018.398-.037.597l1.277-1.276c-.525-.516-1.06-1.041-1.594-1.557-.787-.77-1.566-1.54-2.353-2.309-.19-.19-.39-.38-.589-.57Zm10.882-14.666c-.887-.833-2.435-.86-3.187.172.842-.625 2.064-.616 2.816.154.76.77.706 1.964.19 2.851.525-.298.824-.887.86-1.475.045-.634-.226-1.268-.679-1.702Zm-18.65 67.291c-.47.317-.94.634-1.412.941a159.427 159.427 0 0 0 4.962 3.196 53.173 53.173 0 0 0 2.688 1.557c.978.516 2.02.915 3.051 1.322.67.263 1.35.525 2.028.76-1.05-.67-2.1-1.348-3.141-2.036-1.62-1.069-3.26-2.137-4.78-3.359-1.078-.878-2.173-1.711-3.395-2.381Zm5.994-49.167-1.847 1.765c-.842.815-1.693 1.62-2.535 2.436-.054.054-.19.135-.217.208-.027.072.036.244.045.326.027.172.045.335.064.507.036.29.072.579.1.86.75-.76 1.502-1.512 2.253-2.273l2.843-2.87c.027-.027.109-.081.118-.117.009-.045-.037-.064-.073-.1a28.899 28.899 0 0 1-.751-.742Zm-57.37.833c.59.597 1.178 1.186 1.766 1.783l2.816 2.843c.217.217.425.434.642.652l.109-.888c.018-.162.045-.316.063-.48.01-.072.073-.262.046-.325-.037-.082-.181-.172-.245-.236l-1.34-1.285c-.96-.924-1.928-1.847-2.888-2.77-.018-.019-.081-.1-.108-.109-.037-.01-.09.072-.127.1-.245.235-.489.48-.733.715Zm50.97 30.997c-.571 2.345-1.205 4.672-1.82 6.998 1.095-3.802 2.308-7.577 2.987-11.479.344-1.964.552-3.974.453-5.966-.045-.96-.154-1.91-.362-2.852a15.967 15.967 0 0 0-.888-2.725c-.724-1.756-1.602-3.449-2.426-5.169-.208-.443-.416-.887-.615-1.33-.19-.444-.353-.888-.58-1.313-.443-.851-.977-1.648-1.52-2.435a51.797 51.797 0 0 0-3.55-4.536c-1.258-1.44-2.616-2.78-3.81-4.264-1.232-1.521-2.364-3.114-3.65-4.59-1.14-1.304-2.625-2.852-4.508-2.78-3.865.146-6.69 3.323-8.844 6.193-2.345 3.105-4.337 6.455-6.546 9.66-.751 1.095-1.548 2.154-2.227 3.295-.96 1.602-1.783 3.286-2.553 4.988a99.229 99.229 0 0 0-2.3 5.55c-.696 1.82-1.13 3.693-1.248 5.649-.227 3.847.642 7.722 2.136 11.244.362.85.76 1.693 1.222 2.498-.797-1.52-1.403-3.132-1.901-4.77a27.76 27.76 0 0 1-1.077-5.297c-.181-1.81-.163-3.639.136-5.431.144-.87.353-1.739.624-2.58.272-.843.616-1.675.942-2.5 1.303-3.286 2.716-6.58 4.599-9.596.452-.733.96-1.42 1.457-2.127.534-.751 1.05-1.512 1.566-2.272.987-1.476 1.956-2.96 2.943-4.436.968-1.449 1.955-2.888 3.032-4.264 1.041-1.322 2.182-2.608 3.531-3.63 1.349-1.023 2.988-1.784 4.717-1.775.833.01 1.584.426 2.227.914.67.516 1.267 1.132 1.82 1.775 1.167 1.33 2.208 2.77 3.313 4.155a40.337 40.337 0 0 0 1.71 2.019c.59.643 1.205 1.258 1.784 1.91a59.567 59.567 0 0 1 3.332 4.056c1.04 1.394 2.091 2.852 2.752 4.463.66 1.62 1.494 3.169 2.245 4.744.751 1.575 1.485 3.187 1.856 4.898.76 3.467.29 7.115-.398 10.564a48.976 48.976 0 0 1-.562 2.544ZM64.15 78.762c-1.313 2.1-3.006 3.92-5.088 5.287-.751.498-1.502.995-2.254 1.484-.47.317-.95.634-1.421.942-1.032.688-2.073 1.376-3.105 2.064-1.168.778-2.336 1.548-3.504 2.327-.851.57-1.711 1.131-2.562 1.702-.118.072-.226.154-.344.226-.045.036-.127.109-.181.118-.01 0-.018.018-.027.018-.027 0-.127-.109-.154-.127-.073-.054-.136-.118-.208-.172-.136-.118-.281-.226-.417-.344-.552-.453-1.095-.905-1.648-1.349-2.163-1.747-4.345-3.467-6.608-5.088a41.412 41.412 0 0 0-1.956-1.34c-.724-.461-1.448-.878-2.073-1.466-.896-.851-1.638-1.856-2.29-2.897a32.22 32.22 0 0 1-1.892-3.53 45.516 45.516 0 0 1-.779-1.812 25.25 25.25 0 0 0 1.62 3.975c.59 1.186 1.268 2.335 2.092 3.376.416.526.869 1.033 1.376 1.467.39.335.815.607 1.25.87.497.307.986.624 1.466.959 2.38 1.657 4.662 3.458 6.916 5.287.57.462 1.141.923 1.702 1.394.29.235.58.47.86.715.136.118.281.227.417.344.09.082.208.218.344.2.154-.028.326-.19.444-.272.823-.552 1.647-1.114 2.471-1.666 1.204-.806 2.408-1.62 3.612-2.426 1.095-.734 2.191-1.476 3.286-2.21.498-.334 1.005-.67 1.503-1.013.969-.652 1.956-1.295 2.906-1.983 2.155-1.575 3.83-3.766 4.988-6.147.308-.624.57-1.267.806-1.919a19.642 19.642 0 0 1-1.548 3.006Zm-10.864-28.78c0 .616.951.607.951 0-.01-.616-.95-.607-.95 0Zm-.163.489a.813.813 0 0 1 .163-1.15.82.82 0 0 1 1.132.19.816.816 0 0 1-.154 1.096.8.8 0 0 1-1.14-.136ZM24.552 85.035c.109.064.208.136.317.209a160.548 160.548 0 0 1-4.988 3.204c-.87.535-1.748 1.06-2.653 1.54-.987.516-2.028.914-3.06 1.321-.66.263-1.33.516-2.01.752 1.141-.725 2.273-1.458 3.395-2.21 1.693-1.122 3.377-2.254 4.952-3.54.67-.551 1.376-1.058 2.119-1.52.235-.145.507-.353.77-.453.008 0 .045-.027.054-.027.045 0 .144.1.18.127.091.063.19.127.29.19.209.127.417.272.634.407Z" fill="#FF1616"/><path fill-rule="evenodd" clip-rule="evenodd" d="M51.947 94.885s5.395-1.376 6.083-4.481c.688-3.114 3.015-6.129 3.839-10.067.824-3.938-.272-5.35 1.647-6.817 1.92-1.466 6.31-4.626 6.4-7.967.091-3.34-.732-7.55-.778-8.193-.045-.642-.733-2.245-.407-2.833.317-.598 1.276-1.784 1.421-2.245.136-.462 1.829-1.204-.733-3.993-2.562-2.788-4.708-4.707-5.26-5.169-.552-.453-2.2-1.14-2.517-1.231-.317-.09-6.862-1.738-7.776-1.422-.915.317-3.748 2.056-4.436 2.29-.688.227-8.736-.18-9.424-.642-.688-.462-2.01-1.186-2.88-1.186-.868 0-2.1-.045-2.742-.045-.643 0-2.834.407-3.296.507-.461.09-2.19.688-2.19.688l-2.29 1.095-2.337 1.874-1.828 2.58-1.05 1.947s-.508.869-.553 1.376c-.045.507-.18 1.186.317 2.01.507.823 1.467 5.721.453 7.758-1.005 2.037-2.191 4.192-1.965 4.78.227.598 1.467 1.856 1.693 2.571.226.724 6.817 8.954 7.043 9.46.227.507.96 2.427.96 2.427s.507 1.783.552 2.245c.046.462 2.698 4.943 3.884 7.324 1.186 2.38 2.2 3.34 2.607 3.757.408.416 1.512 1.557 1.784 1.602.271.045 1.783.362 1.783.362s1.829.317 2.381.688c.553.362 1.467.824 2.1.87.643.045 1.286.226 2.056 0 .787-.227 5.459-1.92 5.459-1.92Z" fill="#BABECB"/><path fill-rule="evenodd" clip-rule="evenodd" d="M50.797 59.452s.788.688 2.164 0c1.376-.688 4.943-1.748 4.943-1.748s-.517 2.816-.788 3.024c-.272.208-.652.96-1.132 1.068-.48.1-1.403.272-1.82.417-.416.136-1.882.208-2.163.172-.272-.036-1.657-.344-1.91-.896-.254-.553-.29-1.44-.29-1.44l.996-.597ZM40.847 59.316c-.117.027-1.403.579-2.127.244-.724-.335-2.435-1.068-2.535-1.095-.1-.037-.923-.272-1.131-.444-.209-.172-.517-.444-.86-.172-.345.272-.888 1.657-.136 2.2.751.543 1.34 1.476 2.227 1.747.896.272 1.548.67 2.164.589.615-.082 1.303-.218 1.71-.453.417-.254 2.1-2.979.688-2.616ZM51.421 76.879s.598-.915.842-1.83c.254-.914.57-2.109.57-2.109s1.857 1.123 1.422 4.69l-2.834-.751ZM37.172 77.63l2.77-.706s-.76-1.35-1.06-2.128c-.289-.778-.57-1.856-.57-1.856s-1.756 1.186-1.14 4.69Z" fill="#F9B00B"/><path fill-rule="evenodd" clip-rule="evenodd" d="M55.133 67.174s-.262-1.15.643-.96c.914.19 5.314 1.44 9.125-1.892 0 0 1.766-1.231 2.753-4.237.986-3.005 2.037 1.204 2.055 1.358.018.145 0 1.44-.055 1.648-.054.208-.29 2.662-.461 2.997-.172.335-1.168 1.91-1.576 2.326-.416.417-2.055 1.412-2.3 1.548-.234.136-2.054.417-2.335.48-.271.073-1.44.036-2.19.136-.752.1-1.648-.1-2.228 0-.588.1-1.34.063-1.919-.245-.597-.307-2.363-3.16-1.512-3.16Z" fill="#7A879A"/><path fill-rule="evenodd" clip-rule="evenodd" d="M42.25 59.28s1.422 1.004 2.056.959c.643-.045 1.964-.09 2.154 0 .181.09 1.304 0 1.304 0s.797-.371.779-.462c-.018-.09.57-.18.57-.498 0-.317.272-.507 0-.778-.272-.272-.914-.915-1.005-1.24-.09-.317-.036-.408-.344-.824-.299-.417-.896-.688-1.213-.87-.317-.18-.779.182-1.096 0-.316-.18-.869-.054-.869-.054l-2.335 3.766Z" fill="#414B5E"/><path fill-rule="evenodd" clip-rule="evenodd" d="M68.912 51.213c-5.595-3.196-8.845.28-11.389 2.408-2.535 2.128-6.31 2.952-6.31 2.952l.516.344c-3.566 1.032-3.965-.978-3.965-.978-.987 1.503.598 2.825 2.336 3.431.036.01.072.027.1.036.316.109.642.19.95.245.154.045.29.081.353.09.109.027.272.018.398.018.38.036.435-.018.399-.1.253-.108.724-.298 1.258-.524.018-.01.045-.018.082-.037.226-.09.461-.199.697-.298.009-.01.027-.01.036-.018.344-.145.688-.3.987-.426.525-.235.914-.416.968-.47.209-.2 1.892-.897 2.028-1.033.136-.136.987-.787.987-.787s.172-.218.326-.399c.235-.054.48-.108.616-.18.307-.164.896-.182 1.167-.164.272.01.888-.145 1.204-.145.308 0 1.377-.135 1.956-.244.588-.1 1.548-.208 2.055-.344.516-.136 1.168-.417 1.512-.552.344-.136.58-.417.824-.616.244-.208.344-.923.425-1.077.036-.073.082-.145.127-.227.462-.905-.643-.905-.643-.905Z" fill="#414B5E"/><path fill-rule="evenodd" clip-rule="evenodd" d="m65.626 49.919 1.204-.28s-1.476-2.509-2.363-2.472c-.896.036-3.359.688-4.355 1.376-.995.688-4.562 3.014-8.093 4.49-3.53 1.476-4.192 1.105-4.237 2.897 0 0-.733.77-.462-.842.272-1.611.652-2.064 1.032-2.3.38-.244 1.748-1.14 2.164-1.15.407-.017 1.54-.46 1.648-.56.1-.1 4.88-2.128 4.888-2.164.01-.036 3.82-1.784 5.432-2.78 1.612-.995 2.264-.923 2.915-.651.652.271 1.268.344 1.612.751.344.417.787.924.923 1.24.136.308.344.725.48.996.136.272.652 1.032.751 1.204.1.172.263 1.992.263 1.992l-.507-.38c-.01 0-1.34-.815-3.295-1.367Z" fill="#fff"/><path fill-rule="evenodd" clip-rule="evenodd" d="M54.572 65.816s.353-.86 1.403-.588c1.05.271 5.124 1.05 6.727-.734 1.602-1.783 4.345-3.295 3.566-7.324 0 0-.18-.878.136-1.059.326-.181 1.177.57 1.304 1.277 0 0 .39-.815.344-1.041-.045-.227-.09-.689-.227-1.141-.135-.462.562-.706-.29-.924-.85-.217-.94.037-1.312 0-.362-.036-1.05.29-1.285.236-.227-.046-.824.498-1.096.317-.271-.181-.516.28-.86.298-.344.018-.47 1.023-.561.978-.09-.045-.362.417-.462.643-.09.226-.136.226-.317.643-.18.407-.027.552-.335.778-.307.227-.534.417-.76.733-.226.317-.688 1.096-.688 1.096s-.226.416-.362.507c-.136.09-.779.271-.942.462-.163.18-.896.642-1.032.688-.136.045-.824.316-.824.316s-.416.046-.914.181c-.507.136-.887-.008-1.222.227-.335.235-.036.1-.715.462-.68.362-.743.642-.987.778-.235.136-.416.417-.444.552-.027.136.227.317.444.643.217.317.489.634.679 1.005.19.362 1.032-.009 1.032-.009Z" fill="#414B5E"/><path fill-rule="evenodd" clip-rule="evenodd" d="M55.776 66.214s2.1.616 4.463.172c2.363-.443 3.087-.996 3.087-.996s-3.223 2.472-7.55.824ZM67.527 56.926s.878 3.983-2.617 7.396c0 0 2.97-1.268 3.15-5.35l.59-1.892-.236-.308-.887.154Z" fill="#fff"/><path fill-rule="evenodd" clip-rule="evenodd" d="M53.612 68.441c-.688-1.267-2.335-1.204-2.951-1.059-.616.136-1.476 1.648-2.535 2.336-1.06.688-2.471.552-2.471.552h-.109s-1.412.136-2.471-.552c-1.06-.688-1.92-2.2-2.535-2.336-.616-.136-2.264-.208-2.952 1.06-.688 1.267.96 1.828.96 1.828l1.467.434s2.634.725 5.205.788h.751c2.572-.063 5.206-.788 5.206-.788l1.467-.434c.009 0 1.656-.552.968-1.829Z" fill="#414B5E"/><path fill-rule="evenodd" clip-rule="evenodd" d="M39.426 70.533s-.968 1.013-1.657 2.996c0 0-.425.815-.452.905-.027.1-.444 1.503-.444 1.748 0 .253.118.733 0 .896-.117.163-.317.462-.507.552-.18.09-.525.118-.842 0-.316-.117-.796-.643-.941-.869-.136-.226-.163-.733-.181-1.077-.027-.344 1.213-3.549 1.213-3.549s.434-.824.706-1.14c.272-.318.87-.96.96-1.05.09-.091.443-.173.525-.11.081.064 1.62.698 1.62.698ZM51.947 70.533s.968 1.013 1.656 2.996c0 0 .426.815.453.905.027.1.444 1.503.444 1.748 0 .253-.118.733 0 .896.117.163.317.462.507.552.18.09.525.118.842 0 .317-.117.805-.643.941-.869.136-.226.163-.733.181-1.077.018-.344-1.213-3.549-1.213-3.549s-.434-.824-.706-1.14c-.272-.318-.87-.96-.96-1.05-.09-.091-.443-.173-.525-.11-.081.064-1.62.698-1.62.698Z" fill="#414B5E"/><path fill-rule="evenodd" clip-rule="evenodd" d="M48.534 65.96c0 .29-1.286.526-2.87.526s-2.87-.236-2.87-.525c0-.29 1.286-.525 2.87-.525 1.593 0 2.87.235 2.87.525Z" fill="#fff"/><path fill-rule="evenodd" clip-rule="evenodd" d="M45.655 81.432v-.054s-.037.027 0 .054Z" fill="#414B5E"/><path fill-rule="evenodd" clip-rule="evenodd" d="M46.524 81.405c-.625.082-.815.055-.87.027-.054.037-.244.055-.868-.027-1.078-.136-2.725.245-2.725.245.724 2.064 3.576 1.982 3.594 1.982.018 0 2.87.09 3.594-1.982 0 0-1.648-.38-2.725-.245Z" fill="#414B5E"/><path fill-rule="evenodd" clip-rule="evenodd" d="M45.655 81.378v.054c.036-.027 0-.054 0-.054Z" fill="#414B5E"/><path fill-rule="evenodd" clip-rule="evenodd" d="M49.23 51.114c-.099.063 2.219-1.512 3.36-2.336 1.131-.824 3.43-2.227 5.558-2.163 0 0-1.612-1.205-3.703 0-2.1 1.203-4.21 3.847-5.214 4.499Z" fill="#fff"/><path fill-rule="evenodd" clip-rule="evenodd" d="M36.158 67.174s.263-1.15-.643-.96c-.914.19-5.314 1.44-9.125-1.892 0 0-1.765-1.231-2.752-4.237-.987-3.005-2.037 1.204-2.055 1.358-.018.145 0 1.44.054 1.648.054.208.29 2.662.462 2.997.172.335 1.168 1.91 1.575 2.326.416.417 2.055 1.412 2.3 1.548.235.136 2.055.417 2.335.48.272.073 1.44.036 2.2.136.751.1 1.648-.1 2.227 0 .589.1 1.34.063 1.92-.245.588-.307 2.353-3.16 1.502-3.16Z" fill="#7A879A"/><path fill-rule="evenodd" clip-rule="evenodd" d="M22.38 51.213c5.594-3.196 8.844.28 11.388 2.408 2.535 2.128 6.31 2.952 6.31 2.952l-.516.344c3.567 1.032 3.965-.978 3.965-.978.987 1.503-.597 2.825-2.335 3.431-.037.01-.064.027-.1.036a6.39 6.39 0 0 1-.95.245c-.154.045-.29.081-.354.09-.108.027-.271.018-.398.018-.38.036-.434-.018-.398-.1-.254-.108-.724-.298-1.259-.524-.018-.01-.045-.018-.081-.037-.226-.09-.462-.199-.697-.298-.01-.01-.027-.01-.036-.018-.344-.145-.688-.3-.987-.426-.525-.235-.915-.416-.969-.47-.208-.2-1.883-.897-2.028-1.033-.136-.136-.987-.787-.987-.787s-.163-.218-.325-.399c-.236-.054-.48-.108-.616-.18-.308-.164-.887-.182-1.168-.164-.271.01-.887-.145-1.204-.145-.317 0-1.376-.135-1.955-.244-.589-.1-1.549-.208-2.055-.344-.517-.136-1.168-.417-1.512-.552-.344-.136-.58-.417-.824-.616-.245-.208-.344-.923-.426-1.077-.036-.073-.081-.145-.117-.227-.471-.905.633-.905.633-.905Z" fill="#414B5E"/><path fill-rule="evenodd" clip-rule="evenodd" d="m25.666 49.919-1.204-.28s1.475-2.509 2.371-2.472c.888.036 3.36.688 4.355 1.376.996.688 4.563 3.014 8.093 4.49 3.531 1.476 4.192 1.105 4.237 2.897 0 0 .733.77.462-.842-.272-1.611-.652-2.064-1.032-2.3-.38-.244-1.747-1.14-2.164-1.15-.416-.017-1.548-.46-1.648-.56-.1-.1-4.88-2.128-4.888-2.164-.018-.036-3.82-1.784-5.432-2.78-1.611-.995-2.263-.923-2.915-.651-.652.271-1.267.344-1.611.751-.345.417-.788.924-.924 1.24a25.91 25.91 0 0 1-.48.996c-.136.272-.652 1.032-.751 1.204-.1.172-.263 1.992-.263 1.992l.507-.38s1.331-.815 3.287-1.367Z" fill="#fff"/><path fill-rule="evenodd" clip-rule="evenodd" d="M36.72 65.816s-.354-.86-1.404-.588c-1.05.271-5.124 1.05-6.726-.734-1.602-1.783-4.346-3.295-3.567-7.324 0 0 .19-.878-.136-1.059-.317-.181-1.177.57-1.303 1.277 0 0-.39-.815-.345-1.041.046-.227.091-.689.227-1.141.136-.462-.562-.706.29-.924.85-.217.95.037 1.312 0 .362-.036 1.05.29 1.286.236.226-.046.824.498 1.095.317.272-.181.516.28.86.298.344.018.471 1.023.561.978.091-.045.372.417.462.643.09.226.136.226.317.643.181.407.027.552.335.778.308.227.534.417.76.733.227.317.689 1.096.689 1.096s.226.416.362.507c.135.09.778.271.932.462.154.19.896.642 1.032.688.136.045.824.316.824.316s.407.046.914.181c.507.136.888-.008 1.222.227.335.235.037.1.716.462.67.362.742.642.986.778.236.136.417.417.444.552.027.136-.226.317-.444.643-.217.317-.488.634-.678 1.005-.182.362-1.024-.009-1.024-.009Z" fill="#414B5E"/><path fill-rule="evenodd" clip-rule="evenodd" d="M35.515 66.214s-2.1.616-4.463.172c-2.363-.443-3.087-.996-3.087-.996s3.223 2.472 7.55.824ZM23.764 56.926s-.878 3.983 2.626 7.396c0 0-2.97-1.268-3.15-5.35l-.59-1.892.236-.308.878.154ZM42.06 51.114c.1.063-2.217-1.512-3.358-2.336-1.131-.824-3.431-2.227-5.558-2.163 0 0 1.611-1.205 3.702 0 2.092 1.203 4.21 3.847 5.215 4.499Z" fill="#fff"/><path fill-rule="evenodd" clip-rule="evenodd" d="M58.094 89.58c-.028-.706.045-1.376 0-1.874-.046-.507-.209-.643-.263-1.24-.054-.598-.154-1.331-.2-1.467-.044-.136 0-.18-.135-.462-.136-.271.045-.226-.18-.552-.227-.317-1.848-1.34-3.767-1.63 0 0 1.267 1.404 1.53 2.934.009.09.254 1.964-.181 3.123-.742 1.639-2.988 4.925-9.108 4.997-6.12-.072-8.364-3.358-9.107-4.997-.434-1.159-.19-3.033-.18-3.123.262-1.54 1.53-2.933 1.53-2.933-1.911.29-3.532 1.312-3.758 1.63-.226.316-.045.27-.181.551-.136.272-.09.317-.136.462-.045.136-.136.87-.199 1.467-.054.597-.217.733-.263 1.24-.045.507.028 1.177 0 1.874-.027.697.317.914.263 1.14-.054.227 1.557 1.232 2.598 2.454.58.67 1.195.643 1.63.489.47.308 1.177.751 2.19 1.412 1.666 1.096 4.419.987 5.614.878 1.195.109 3.956.209 5.612-.878a96.782 96.782 0 0 1 2.191-1.412c.435.163 1.05.19 1.63-.489 1.04-1.213 2.661-2.218 2.598-2.453-.045-.227.308-.444.272-1.141Z" fill="#7A879A"/><path fill-rule="evenodd" clip-rule="evenodd" d="M52.426 68.92c-.027-.307-1.638-.904-1.919-.832-.28.063-.353.543-1.023 1.268-.67.715-1.72 1.222-1.72 1.222 2.816-.019 4.69-1.35 4.662-1.657ZM41.825 69.347c-.66-.715-.742-1.195-1.023-1.268-.28-.072-1.892.525-1.92.833-.026.308 1.848 1.639 4.663 1.657 0 0-1.059-.507-1.72-1.222ZM45.682 80.97h-.688c-1.548 0-3.223.725-3.223.725.86-.208 2.164-.1 2.164-.1l-.498.344c.543.57 2.01.589 2.218.58.208 0 1.675-.018 2.218-.58l-.498-.344s1.303-.1 2.163.1c0 0-1.683-.724-3.222-.724h-.634ZM59.352 47.574l1.603-.39s-1.214-.95-3.839 1.105c0 0 2.1-.371 2.97-.597l-.734-.118ZM31.224 47.692c.87.226 2.97.597 2.97.597-2.635-2.055-3.839-1.104-3.839-1.104l1.603.389-.734.118Z" fill="#0D0D0D"/><path fill-rule="evenodd" clip-rule="evenodd" d="M65.87 66.911c-1.603 1.376-7.134.643-7.134.643l1.005.914s-1.132 0-2.526-.199c.018-.009-1.865-.299-2.462-1.675-.598-1.376.317-2.154 1.095-2.154.779 0 4.074.507 5.26-.317 1.186-.824 2.146-2.2 2.146-2.2l-1.965.643s.96-1.259 1.783-1.838c.57-.407 1.386-1.394 1.865-2.327.082.706-.534 2.327-.534 2.327s1.576-1.793 1.44-2.78c-.136-.986-1.286-2.751-1.286-2.751.634-.046 1.268-.1 1.874-.209.426.634.978 1.548 1.268 2.409.498 1.493-.57 4.807-.598 4.897l1.05-1.095c.01-.01-.679 4.336-2.281 5.712Zm-9.198 18.306s.181 3.114-.136 4.3-3.476 5.44-10.429 5.44h-.914c-6.953 0-10.112-4.254-10.43-5.44-.316-1.186-.135-4.3-.135-4.3 1.376-2.1 4.3-3.341 4.3-3.341-2.055.272-4.12 1.05-4.12 1.05a3.41 3.41 0 0 1-.769-.416c-.199-.326-.742-1.395.58-2.055 1.575-.779 4.544-2.698 10.52-2.698h1.013c5.975 0 8.945 1.92 10.52 2.698 1.322.651.788 1.729.58 2.046-.209.163-.471.298-.77.416 0 0-2.055-.779-4.12-1.05.01.009 2.943 1.25 4.31 3.35ZM31.568 68.468l1.005-.914s-5.532.733-7.134-.643c-1.602-1.376-2.29-5.721-2.29-5.721l1.05 1.095c-.027-.081-1.087-3.404-.598-4.897.29-.86.842-1.784 1.268-2.409.606.109 1.24.163 1.874.209 0 0-1.15 1.774-1.286 2.752-.136.986 1.44 2.779 1.44 2.779s-.625-1.62-.535-2.327c.471.933 1.286 1.92 1.865 2.327.824.588 1.784 1.838 1.784 1.838l-1.965-.643s.96 1.376 2.146 2.2c1.186.824 4.481.317 5.26.317.778 0 1.693.778 1.095 2.154-.597 1.376-2.48 1.666-2.48 1.666-1.367.217-2.5.217-2.5.217ZM51.34 60.14c.027.018.643.334 1.14 0 .517-.344 4.246-1.82 4.246-1.82s-1.602 4.617-5.386 1.82Zm-16.757-1.82s3.73 1.476 4.245 1.82c.507.334 1.114.018 1.141 0-3.784 2.797-5.386-1.82-5.386-1.82Zm10.32-1.91c.018.86.036 2.38-.009 2.698-.072.443-.652.552-1.068.38-.227-.09-.507-.435-.715-.724.869-.707 1.493-1.521 1.792-2.354Zm2.58 3.078c-.416.172-.996.072-1.059-.38-.045-.317-.027-1.838-.01-2.698.3.824.915 1.647 1.784 2.345-.208.29-.489.633-.715.733ZM37.425 77.114c-.027-.643.01-1.783.453-2.86 0 0 .163.66.48 1.511 0 0-.272-1.484-.163-2.354 0 0 .235 1.802 1.04 3.178-.597.145-1.212.317-1.81.525Zm17.617-.272a4.65 4.65 0 0 0-.298-.298c-.399-3.83-2.146-4.5-2.146-4.5-.108 2.372-.941 3.83-1.33 4.382-2.78-.543-5.251-.462-5.623-.453-.37-.018-2.842-.09-5.622.453-.389-.561-1.23-2.01-1.33-4.382 0 0-1.748.67-2.146 4.5l-.299.299c-.896-.01-.85-.643-.85-.643.733-3.16 2.607-5.812 2.607-5.812l1.892.29c.027.008.036.017.036.017-.018-.009.172.019.172.019s-.462-.272-1.005-.616c-.561-.435-1.195-1.014-1.195-1.394 0-.688 1.096-1.286 1.096-1.286s-1.331-.018-1.666 1.15c0-.29.081-.697.154-.987.253-.778.651-1.666 1.095-2.172.597-.689 1.322-.598 1.81 0 .471.588 1.72 1.394 1.766 1.42 0 0-.109-.425-.362-.986 1.104-.724 2.996-.77 3.703-.76 0 .009.054.009.135 0 .09 0 .136.009.136.009.706-.019 2.598.027 3.703.751-.254.561-.362.987-.362.987.036-.027 1.285-.833 1.765-1.421.48-.598 1.213-.689 1.81 0 .444.506.852 1.394 1.096 2.172.072.29.154.697.154.987-.335-1.168-1.666-1.15-1.666-1.15s1.096.598 1.096 1.286c0 .38-.634.96-1.195 1.394-.544.344-1.005.616-1.005.616l.19-.028c-.018.01 0 .01.027 0l1.892-.29s1.874 2.653 2.607 5.813c.019-.01.055.624-.842.633Zm-1.611-2.589c.444 1.078.48 2.218.453 2.861a18.67 18.67 0 0 0-1.81-.525c.796-1.376 1.031-3.178 1.031-3.178.118.87-.163 2.354-.163 2.354.326-.842.489-1.512.489-1.512ZM26.118 46.18c.235-.109.498-.154.77-.163.19.009 1.176.081 3.096.923 0 0-.797-1.503-2.237-2.01 2.716-1.014 5.505-.344 5.505-.344l-1.231-.914c1.964-.09 3.385.733 4.843 1.648 1.467.914 3.748 2.11 3.748 2.11l-1.24-2.11c3.43 2.517 6.174 3.386 6.174 3.386l.09.036.09-.036s2.744-.87 6.175-3.386l-1.24 2.11s2.29-1.187 3.748-2.11c1.466-.915 2.879-1.739 4.852-1.648l-1.231.914s2.788-.66 5.504.344c-1.44.507-2.236 2.01-2.236 2.01 1.92-.833 2.906-.914 3.096-.923.263.009.534.054.77.163.742.335 3.033 3.865 3.73 5.033-.145.987-.607 1.612-1.467 1.992-.942.416-2.227.498-3.485.58-.49.036-.969.063-1.43.108 1.846-1.394 4.634-1.901 4.634-1.901-2.607-.525-4.943.253-6.083 1.44-1.105 1.149-2.798 2.353-2.906 2.425-1.901 1.295-3.875 2.354-5.504 2.934-.734.262-1.992-.073-3.124-.815-1.132-.752-1.856-1.73-1.91-2.544-.1-1.702.498-1.983 3.34-3.024l.145-.054c2.888-1.06 7.93-4.002 8.14-4.128-1.006.054-3.568.525-4.41 1.095-.842.57-3.657 1.458-3.657 1.458-.2.081-.39.154-.57.226l-.145.054c-.335.127-.652.236-.95.353l1.52-1.611s-2.281 1.584-5.414 2.055c-3.132-.47-5.413-2.055-5.413-2.055l1.53 1.611a27.387 27.387 0 0 0-.951-.353l-.145-.054c-.181-.063-.371-.145-.58-.226 0 0-2.806-.878-3.657-1.458-.842-.57-3.404-1.04-4.409-1.095.218.127 5.26 3.06 8.14 4.128l.144.054c2.843 1.041 3.44 1.322 3.34 3.024-.045.824-.778 1.792-1.91 2.544-1.131.751-2.38 1.077-3.123.815-1.63-.57-3.603-1.63-5.504-2.933-.109-.082-1.802-1.277-2.906-2.427-1.14-1.186-3.477-1.964-6.084-1.44 0 0 2.788.508 4.635 1.902a34.122 34.122 0 0 0-1.43-.109c-1.25-.081-2.544-.163-3.486-.58-.86-.38-1.321-1.004-1.466-1.99.742-1.169 3.033-4.7 3.775-5.034Zm47.23 17.599c-2.336-3.295-2.535-6.455-2.4-7.55.137-1.096 1.992-3.64 1.992-5.35 0-1.72-2.688-4.12-3.92-6.664-1.222-2.544-1.638-3.64-3.693-3.64 0 0-1.648-1.855-2.535-5.286-.896-3.431-1.992-6.383-2.879-7.55l-.072 1.168s-1.232-2.608-4.527-4.464l.344 1.512s-2.336-4.526-8.718-4.526h-2.562c-6.382 0-8.718 4.526-8.718 4.526l.344-1.512c-3.295 1.856-4.527 4.463-4.527 4.463l-.072-1.167c-.887 1.168-1.992 4.119-2.879 7.55s-2.535 5.287-2.535 5.287c-2.055 0-2.471 1.095-3.693 3.64-1.232 2.534-3.92 4.942-3.92 6.662 0 1.72 1.855 4.255 1.991 5.35.136 1.096-.072 4.256-2.399 7.55-2.335 3.296-2.335 6.247-1.991 6.936.344.688.344 2.815.344 2.815.334-1.955 1.077-2.788 1.095-2.815-.688 1.303-.48 4.526.552 5.287 1.032.75 2.68 3.087 4.663 6.246 1.991 3.16 4.463 4.12 4.463 4.12l-.752-2.68c1.512 1.23 3.296 5.287 4.12 6.798.823 1.512 1.647 2.128 1.647 2.128v-2.128c.824 2.2 2.743 4.12 4.943 5.215 2.2 1.095 3.504 2.471 3.504 2.471v-1.376c2.281 2.037 4.743 3.07 5.096 3.205.399-.145 2.861-1.177 5.143-3.205v1.376S52.1 96.795 54.29 95.7c2.2-1.095 4.12-3.024 4.943-5.215v2.128s.824-.616 1.648-2.128c.824-1.511 2.607-5.558 4.119-6.798l-.752 2.68s2.472-.96 4.464-4.12c1.991-3.16 3.639-5.495 4.662-6.246 1.032-.752 1.231-3.984.552-5.287.027.027.76.85 1.096 2.815 0 0 0-2.127.344-2.815.316-.689.316-3.64-2.02-6.935Z" fill="#0D0D0D"/><path d="M46.352 7.18c.045-.245 0-.417-.054-.517l-.336.073c-.117.226-.126.326-.316.588.081-.2-.019-.036-.2-.561-.018-.045-.86.308-.923.335-.045.018.317.29.38.452.073.163.372.2.09.788-.09.19-.063.217-.27.308a.398.398 0 0 1-.281.036c-.01 0-.019-.009-.019-.009-.199-.253-.253-.806-.56-.806-.19.145-.417.118-.598.163-.49.136-.68.027-.77.127-.045.045-.045.072-.045.335-.01 1.14.136 1.267.054 1.295a.499.499 0 0 1-.434-.064c-.136.027-.163.045-.462.226-.272.163-.253.118-.244.38.054.852.09.824-.055.951.154-.018.28-.018.408-.027l-.3.353.11.118c-.372.335-.688.416-.86.425-.064.145-.1.254-.136.417l-.507.226c.027.534.09.95.335 1.575l.253.046-.136.29c.245.352.471.588.842.85.037-.217.19-.335.399-.389.208-.045.389-.018 1.158.063.281.028.335.091.408.19-.236.136-.38.182-.634.363-.036.027-.063.117-.054.199.027.154-.172.76-.172.76s.28.018.47-.045c.535-.172.57-.353 1.023-.67.453-.317.281-.299.372-.19-.76.751-.715 1.159-.49 1.874.236-.2.544-.308.59-.326l.008-.009c.055.009-.154.081-.172.507-.009.226.154.453.181.598.263.036.987.008 1.603.334.163-.525-.118-.96.1-1.33.162.307-.037.045.706.896.027.027.235.244.28.253.09.027.516-.117.706-.108.01.036.308.054.263-.1-.326-1.113-.344-1.412.108-2.019.172.453.2.634.399.48l.633-.47.227.642c.344-.416.85-1.14 1.303-1.476-.153-.09-.244-.208-.244-.208s.09-.253.172-.443c-.598-.037-.797-.326-1.023-.435.036-.045.109-.199.181-.253.01-.01.018-.01.027-.01.543.127 1.023.725 1.612.562.081-.018.163-.054.199-.127 0 .01.353-1.05.507-1.485a5.265 5.265 0 0 0-.697-.235c.018-.018.253-.208.271-.226a2.487 2.487 0 0 1-.045-.716c-1.485.335-.842.317-2.037-.027a5.145 5.145 0 0 1 1.286-.498l-.046-.588c-.18.01-.271.018-.434.045.1-.317.172-.525.362-.914a1.25 1.25 0 0 0-.416.145c.036-.109.063-.218.1-.308a.156.156 0 0 1-.019-.109c.036-.389.208-.317.29-.941-.109-.064-.444-.272-.534-.362a1.979 1.979 0 0 1-.272-.145c-.109.118-.172.262-.58.706-.217.235-.425.534-.76.543h-.108c.271-.081.398-.244.488-.353.037-.045.1-.1.254-.434.136-.29.063-.308.462-.67l-.76-.037-.236-.434c-.534 1.014-.417 1.086-1.06 1.33l-.036-.063c.426-.317.534-.516.634-1.023.09-.461-.018-.76-.054-1.005-.073.01-.136.019-.236-.027-.226-.108-.29-.19-.353-.398l-.878-.063c-.108.389-.154.56-.398.805Z" fill="#fff"/><path d="M46.94 18.46c.027.027.118.09.163.099.036.01.036 0 .082-.009.525-.109.624-.2.715-.2-.027-.117-.109-.008-.181-.633-.3.027-.417.344-.706.272-.399-.1-.779-.453-.725-.87-.461.317-.923.634-1.394.951-.199-.317-.081-.688-.199-1.04-.172.072-.534.38-.66.524 0 .09-.073.045-.091.163.244-.208.434-.317.47-.326l.01-.009c.054.01-.136.027-.154.453-.01.154 0 .18-.01.244-.018.19.118.335.172.326.2-.009.797-.226 1.413.208-.082-.543.072-.878.299-1.267.162.317.063.271.796 1.113ZM41.273 15.318c.045-.253.2-.272.444-.308-.272-.172-.408-.199-.68-.362.037-.308.128-.607.282-.869-.163.136-.327.262-.49.398-.162-.489-.045-1.186.019-1.693-.055.01-.127.163-.19.245l-.498.217c.063.489.117.67.353 1.295l.208.136-.063.38c.244.244.244.298.615.561ZM48.606 8.284c.09-.027.235 0 .326.009.054.145.29.407.29.561.163-.371.226-.416.516-.688l-.806.009-.172-.326c-.19.308-.01.181-.154.435ZM51.078 12.937c.162.235.37.435.597.607-.136.054-.262.1-.398.153l.271.38c-.145.29-.37.526-.651.68.19.072.38.108.579.054.081-.018.163-.054.199-.127.045-.09.082-.434.398-1.321A5.397 5.397 0 0 1 51.35 13c.272-.217.39-.244.399-.262-.055-.29-.073-.353-.064-.58-.2.046-.326.145-.462.181.2.236.127.453-.145.598ZM43.7 8.12c-.064.019-.363.1-.426.127-.67.236-.58.082-.643.109.027.1.018.407.018.47.39-.316.67-.389 1.05-.705ZM46.968 7.396c.226-.162.425-.37.66-.534.218.254.544.498.535.924.072-.39.027-.552 0-.788-.064.01-.082 0-.181-.045-.227-.109-.363-.181-.435-.39l-.634-.045c-.136.39-.29.471-.489.797.055.09.48.009.544.081ZM45.618 7.487c.408-.235.263.127.652-.09.018-.118.055-.399-.018-.652l-.208.108c-.118.218-.118.335-.426.634Z" fill="#BCBCBC"/><path d="M44.83 7.252c.037.072.218.108.327.507.136-.109.48-.272.461-.272.163-.326.01-.616-.154-.67-.008 0-.235.263-.633.435ZM50.054 8.51c-.126.145-.253.28-.452.489.136.09.362.172.507.109.063.362.462.75.326 1.086.045-.027.217-.326.262-.57.045-.245 0-.344.082-.743-.236-.117-.525-.235-.725-.371ZM42.504 9.796c-.117.036-.244.1-.37.045a2.882 2.882 0 0 1-.245.335h-.01c0 .027-.208.244-.226.271.064.245.118.507-.036.716-.009 0-.009.009-.018.009.118.027.308.081.353.081l-.498.263a.503.503 0 0 0 .2.063.807.807 0 0 1 .044.507c-.072.29-.271.525-.461.751a.673.673 0 0 0 .453-.217 3.253 3.253 0 0 1-.354 1.159c.209-.208.344-.39.58-.561a.817.817 0 0 1-.045.434 10.15 10.15 0 0 1-.335.724c.018.01.072 0 .135 0a.994.994 0 0 1 .996.58c.045.108.073.208.109.326.317.036.38.063.48.199-.055.027-.145.063-.227.118-.081.054-.434.226-.37.28.171-.018.325-.009.56.073.127.063.281.1.426.081-.036.072-.208.263-.208.263.108-.055.317-.118.58-.308h.153c-.118.117-.272.271-.335.398.245-.1.489-.19.751-.244-.054.117-.334.525-.334.534.271-.027.67-.127.941-.154-.1.19-.262.67-.262.67.525-.326.316-.226 1.195-.543-.01.19-.082.38-.19.534l.923-.353c-.046.145-.046.561-.046.561.245-.226.38-.362.661-.57.154-.073.326-.1.426.036.072-.172.172-.299.244-.39.064.164.055.146.09.254 0 .01.19-.398.19-.407l-.017.38c0 .027.217-.235.253-.317.01.045.109.217.109.217l.263-.552c.081-.127.144-.262.208-.398.1.072.027.452.054.561.2-.39.634-.706.76-1.131-.163-.082-.488-.363-.434-.553.036-.054.136-.235.19-.217.09.018.181.054.263.1.081-.326.063-.326.081-.29l.19.081c.045-.316-.027-.362-.018-.561.01 0 .254.19.398.172-.144-.235-.28-.869-.389-1.122.01-.046-.045-.182-.045-.227-.208-.127-.398-.317-.57-.371.307-.163.353-.254.353-.254-.064-.108-.245-.325-.145-.507.045-.081.163-.117.235-.072-.145-.145-.299-.299-.371-.489-.081-.208-.045-.48.136-.606a.397.397 0 0 0-.444.036 3.243 3.243 0 0 1-.199-.969c-.335.335-.48.362-.489.362-.154.073-.28.064-.28.064s-.037-.046-.028-.073c0-.027.607-.09.01-.235.099-.063.072-.118.19-.163-.363-.054-.553-.1-.372-.371-.407.326-.489.18-.525.18-.036-.008-.027-.008-.145.037l-.036-.063c.073-.055.154-.118.208-.172-.244-.136-.163-.408-.018-.652-.235.09-.48.154-.724.199.136-.172.208-.39.217-.607-.307.326-.887.616-1.466.824 0-.108-.2-.534-.2-.642-.316.1-.497.724-.85.733.027-.055-.019.018-.1.054a.414.414 0 0 1-.29.036c-.018-.018-.136-.081-.18-.163-.073.09-.055.2-.127.281 0-.163-.037-.326-.1-.47-.398.488-.742.805-1.349.986 0 .127-.145.272-.127.426Z" fill="#BCBCBC"/><path d="M43.247 15.78c.262.1.561.126.833.054-.046.063-.091.127-.127.19.271-.154.244-.127.308-.045.217-.064.407 0 .67.072-.172.136-.254.2-.38.362.298-.018.606-.054.905-.108-.082.19-.163.38-.245.561.39-.244.824-.416 1.268-.516l-.082.425c.28-.153.625-.298.77-.343-.064.199-.118.407-.145.615.117-.109.244-.217.362-.317.181-.145.39-.253.606-.326a.798.798 0 0 1 .136-.018l-.072.218c.054-.091.1-.145.145-.209.199.037.588-.48.588-.48s.018.082.027.426c.145-.308.344-.77.49-1.077.053.027.035.199.09.226.018-.054.117-.263.136-.326.018.027.027.063.045.09.1-.262-.027-.841.253-.615-.081-.036-.081-.244-.136-.272.037-.045.073-.09.136-.145.018-.008.027-.008.109.019.063-.181.127-.353.199-.534a.857.857 0 0 1 .154.244h.027c.036-.245-.081-.48-.072-.706.697.688.253.18-.245-1.168-.136-.045-.072-.054-.172-.082.09-.045-.009-.1.09-.153a6.074 6.074 0 0 1-.18-.697c.027-.082.136-.127.208-.091a.663.663 0 0 1-.272-.779.362.362 0 0 0-.29-.036c-.036-.217-.08-.434-.117-.643-.154.1-.136.055-.208.218-.136-.127.072-.236-.435-.245-.117 0-.154-.072-.154-.154 0-.081.027-.172.046-.244-.073-.109-.372-.09-.498-.136C47.89 9 47.936 8.89 47.8 8.9c-.036.018-.063.027-.1.046l.082-.218c-.172.09-.461.136-.561-.009.136-.1.272-.28.435-.335-.344.018-.68.118-1.023.1.135-.073.235-.263.316-.435-.081.082-.163.145-.244.209-.09.063-.181.117-.263.172-.09.054-.19.09-.28.135-.09.046-.181.082-.29.136-.009 0-.145.01-.335.018-.1.01.163-.335.027-.416-.108.308-.597.443-.697.452a25.2 25.2 0 0 0-.335.019c-.19.045-.407.108-.489.29a1.488 1.488 0 0 0-.09-.444c-.408.425-.87.824-1.403 1.068.009.1-.01.036 0 .1-.046.009-.127.036-.227.027-.018.063.018.253.01.316-.019.127-.281.29-.408.263-.027.29.39.453.036.815-.127.036-.18.018-.29.1-.045.036-.172-.01-.09.108a.466.466 0 0 1 .434.145c-.009 1.476-.271 1.675.1 1.14.072.471-.054 1.232-.38 1.558.19-.01.416-.118.597-.245.073-.045.163.037.109.109a.124.124 0 0 1-.036.027c.28.208.543.453.778.715a.737.737 0 0 1 .064.915Z" fill="#8D8D8D"/><path d="M51.467 14.739c-.543.144-.978-.399-1.575-.562-.118-.027-.326.2-.254.38l.01.018c.234.127.406.354.94.408-.054.136-.108.271-.153.398.054.055.108.118.217.19-.407.335-.842.933-1.168 1.34l-.217-.615c-.489.37-.724.579-.797.56-.045-.008-.1-.19-.253-.597-.498.661-.57.888-.19 2.173v.018c-.028.018-.09.027-.136.018v-.018c-.272-.009-.67.127-.743.118-.1-.045-.778-.797-.95-1.123l-.054-.108c-.127.226-.19.29-.136.778a1.9 1.9 0 0 1-.01.598c-.56-.263-1.357-.299-1.53-.308-.144-.19-.135-.344-.135-.58 0-.126.181-.488.226-.588-.172.082-.47.208-.67.408-.253-.725-.027-1.358.399-1.684v-.027a.082.082 0 0 0-.036-.073c-.046-.027-.118-.027-.336.1-.325.208-.642.715-1.357.715.108-.299.163-.724.18-.851.417-.226.544-.308.67-.38-.09-.136-.135-.209-.298-.254-.09-.027-1.096-.163-1.376-.1-.218.055-.362.173-.426.345a2.822 2.822 0 0 1-.724-.743l.154-.335-.299-.054a4.532 4.532 0 0 1-.308-1.476l.516-.235-.018-.054c0-.018.01-.1.118-.335.344-.037.643-.245.896-.48-.036-.055-.072-.109-.127-.163l.417-.308a2.819 2.819 0 0 0-.453-.054c.045-.118 0-.371-.027-.933-.009-.145-.018-.127.127-.208.108-.063.262-.163.47-.244.145.1.38.063.553.027-.036-.399-.073-.236-.064-1.35 0-.135.01-.262.037-.298.036-.054.271.027.733-.108.163-.046.398-.019.597-.163.317.036.263.887.716.814.353-.054.389-.253.461-.389.29-.625-.036-.706-.09-.842s-.245-.299-.344-.398c.199-.082.724-.28.815-.299.162.054.172.462.18.67.173-.181.164-.145.399-.715l.308-.09c.036.099.063.27.027.416l-.081.326c.271-.363.38-.471.57-.987l.778.054c.118.317.371.444.589.435.045.253.127.516.045.914-.136.66-.371.815-.507.896-.072.046-.163.109-.09.245l.027.054c.552-.217.606-.29.86-.797.136-.28.145-.434.208-.579l.217.462.68.027c-.336.308-.318.353-.4.588-.19.562-.479.706-.642.752l-.317.081.326.054c.39.064.57-.172.724-.389.19-.253.272-.29.589-.724a.49.49 0 0 1 .1-.118c.063.027.217.208.715.444-.154.806.072.688-.471 1.494.163-.064.29-.118.462-.172-.172.37-.227.552-.335.887.217-.036.298-.045.461-.054.027.298.082.452.073.48a.565.565 0 0 1-.136.054c-.462.145-.77.298-1.195.525 1.385.407.66.389 2.046.072-.01.435.054.57.045.598-.009.018-.063.045-.344.28.299.082.462.127.76.245-.57 1.493-.443 1.44-.67 1.502Zm.172-1.802c.172-.136.217-.145.18-.308a2.908 2.908 0 0 1-.035-.688c-1.494.335-.878.362-1.83.063 1.033-.516 1.16-.298 1.087-.678-.036-.2-.045-.3-.063-.48-.154.009-.245.009-.398.027.117-.371.226-.589.398-.942a3.24 3.24 0 0 0-.39.127c.281-.498.127-.543.29-1.295-.733-.334-.751-.525-.887-.506-.063.009-.1.063-.19.172-.326.434-.398.461-.589.724-.054.072-.108.145-.162.199.108-.127.226-.308.307-.57.09-.281.037-.236.607-.752l-.923-.036-.29-.616-.063.109c-.154.253-.118.38-.281.706-.172.353-.236.48-.489.607.145-.118.344-.335.462-.915.1-.47-.01-.751-.064-1.104l-.072.009c-.181.036-.417-.073-.516-.38l-.018-.046-.969-.072c-.063.19-.136.39-.235.57a.664.664 0 0 0-.109-.344l-.47.145c-.064.154-.127.317-.19.453-.037-.236-.1-.39-.263-.435-.082-.018-.96.335-.969.335a.061.061 0 0 0-.036.055c-.01.054.036.09.145.199.09.09.217.208.244.29.082.199.353.18.1.733l-.028.054c-.045.109-.09.217-.334.254-.317.045-.254-.824-.716-.824-.027 0-.018 0-.036.018-.172.127-.39.1-.57.154-.697.199-.86-.145-.86.534-.01 1.04.027 1.023.054 1.24-.263.045-.335-.036-.335-.036l-.027-.036a2.85 2.85 0 0 0-.58.28c-.19.109-.199.127-.19.335.046.842.1.842-.027.95l-.154.137c.218-.018.281-.027.453-.018l-.299.226c.082.054.118.063.181.145-.235.199-.498.362-.805.37a1.908 1.908 0 0 0-.154.435l-.507.227c.036.66.108 1.05.353 1.684l.208.036-.109.244c.317.471.544.661.969.96l.018-.109c.027-.172.145-.28.353-.335.245-.054 1.204.073 1.313.1.063.018.1.036.136.072-.227.127-.525.3-.598.335-.027.263-.108.734-.217.978l-.036.09c.624.037.896-.108 1.367-.515.018-.01.217-.19.262-.218-.226.29-.525.878-.18 1.73l.044.117c.091-.127.145-.226.435-.398-.063.172-.081.235-.081.353 0 .208 0 .407.162.625.01.018.037.054.082.045.1 0 1.005.027 1.566.326l.073.036c.072-.235.108-.362.063-.806-.018-.18-.036-.335.009-.48.244.362.833 1.032.96 1.069.117.036.497-.1.697-.11.108.064.407.01.353-.19-.299-1.013-.344-1.33.027-1.855.09.253.136.416.253.444.136.036.29-.11.76-.471l.236.67c.534-.652.896-1.213 1.44-1.62-.09-.064-.181-.118-.29-.218.1-.272.145-.38.2-.489l-.1-.009c-.544-.027-.725-.254-.933-.38-.009-.064.054-.154.109-.172.57.163 1.032.724 1.638.561.317-.081.172-.054.779-1.711-.308-.063-.453-.118-.706-.19Z" fill="#8D8D8D"/><path d="M50.407 13.29c-.126-.561-.343-.29-.597-.95-.136-.073-.244-.164-.2-.29-.035-.362-.27-.788-.035-1.684-.064.117-.09.199-.127.344-.018-.055-.181-.625-.172-.933 0-.009-.1.344-.109.39-.09-.163-.362-.417-.498-.534.037 0 .073 0 .109-.01-.118 0-.127-.009-.163-.09-.018.009-.335.036-.344.045a1.95 1.95 0 0 0-.226-.235s.271-.109.38-.163c-.163-.018-.507-.018-.688-.073-.082.028-.082 0-.154-.072 0 0-.054-.1-.063-.127a.377.377 0 0 1-.245 0 1.054 1.054 0 0 1-.299-.163c.109-.036.408-.199.471-.253-.1.054-.932.136-1.276.163a2.41 2.41 0 0 0 .416-.245c.136-.1.254-.208.362-.316-.335.226-.76.398-1.014.506-.317.127-.516.19-.697.218.082-.073.163-.154.236-.236-.127.109-.281.19-.444.227a2.275 2.275 0 0 1-.244.036c-.091-.01-.19-.01-.236-.01-.271.046-.344.2-.733.417.027-.09.045-.18.054-.28-.117.271-.344.47-.606.56-.172.064-.308.191-.417.254-.108.055-.18.118-.29.136-.117.245-.307.806-.208 1.041.073.2-.117.408-.235.48.09.507-.027 1.05-.136 1.385.082-.163.118-.208.2-.407.017.127-.019.154.017.262.136.453.254.408.163.688-.172.516-.47.734-.461.833.307-.163.516-.407.534-.525.108.163.199.181.28.344-.072-.018-.1-.009-.135-.009.027.018.117.082.19.136.742.588.733 1.041.733 1.041s.054.145.045.244c-.009.1-.09.317-.09.317s.235-.063.353-.009c.108.046.308.073.344.082.036.009-.01 0 .081.045.09-.018.181-.027.281-.027.054 0 .29.036.362.045.172.036.353.073.525.118-.344.027-.398.19-.643.299.688-.227 1.032-.263 1.322-.154-.48.009-.742.57-.742.57.009-.018.063-.045.081-.054.68-.462.788-.38 1.35-.371l-.272.326a.658.658 0 0 1 .57-.218c.136.018.28 0 .416-.027-.1.1-.18.226-.262.344.199-.28.543-.444.815-.425.081 0 .19-.091.262-.064.58-.516.498-.452.607-.597l-.082.588.254-.833c.108-.163.226-.308.317-.47.018.48.009.443.009.443.072-.308.09-.643.208-.905-.01-.181.154-.317.299-.426a5.12 5.12 0 0 0 .172-.823l.135.434c-.117-.697-.117-.652-.108-.679.045.054.163.145.298.326Z" fill="#000"/><path d="M63.652 19.537c.046-.254.2-.272.444-.308-.272-.172-.407-.2-.679-.362.036-.308.127-.607.28-.87-.162.136-.325.263-.488.399-.163-.49-.046-1.186.018-1.693-.054.009-.127.163-.19.244l-.498.218c.063.489.117.67.353 1.294l.208.136-.063.38c.244.245.244.29.615.561Z" fill="#BCBCBC"/><path d="M71.718 46.126c4.98-7.261 30.5-27.07 10.104-19.98 0 0-3.35 1.013-5.052.841-4.345-.434-7.36-3.929-9.261-7.568-2.39-4.59-4.01-9.189-7.786-12.828C53.096.208 39.11.018 31.641 6.59c-3.938 3.467-5.396 8.238-7.786 12.828-1.901 3.648-4.907 7.143-9.261 7.568-1.702.172-5.052-.842-5.052-.842-20.387-7.088 5.124 12.72 10.103 19.98 17.355-4.644 34.71-4.327 52.073 0Z" fill="#000"/><path d="M71.718 46.125c4.98-7.26 30.5-27.068 10.104-19.98 0 0-3.35 1.014-5.052.842-4.345-.434-7.36-3.929-9.261-7.568-2.39-4.59-4.01-9.189-7.786-12.828C53.096.208 39.11.018 31.641 6.59c-3.938 3.467-5.396 8.238-7.786 12.828-1.901 3.648-4.907 7.143-9.261 7.568-1.702.172-5.052-.842-5.052-.842-20.387-7.088 5.124 12.72 10.103 19.98 17.355-4.644 34.71-4.327 52.073 0Z" stroke="#000"/><path d="M53.404 22.28c0 4.237-3.44 7.677-7.686 7.677s-7.686-3.44-7.686-7.677 3.44-7.677 7.686-7.677 7.686 3.44 7.686 7.677Z" fill="#fff"/><path d="M51.313 29.857a5.583 5.583 0 0 1-5.586 5.586 5.583 5.583 0 0 1-5.586-5.586 5.583 5.583 0 0 1 5.586-5.585 5.583 5.583 0 0 1 5.586 5.585Z" fill="#fff"/><path d="M45.166 22.28a2.791 2.791 0 0 1-2.798 2.788 2.792 2.792 0 0 1-2.797-2.788 2.792 2.792 0 0 1 2.797-2.789 2.791 2.791 0 0 1 2.798 2.789ZM51.874 22.28a2.791 2.791 0 0 1-2.797 2.788 2.797 2.797 0 0 1-2.798-2.788 2.791 2.791 0 0 1 2.798-2.789 2.797 2.797 0 0 1 2.797 2.789Z" fill="#000"/><path d="M36.584 17.029c.434 1.639.045 3.169-.888 3.413-.932.244-2.037-.878-2.48-2.517-.435-1.638-.046-3.168.887-3.413.932-.244 2.046.878 2.48 2.517Z" fill="#fff"/><path d="M34.04 21.438c-1.639.434-3.169.045-3.413-.887-.254-.933.878-2.037 2.517-2.481 1.638-.435 3.168-.036 3.413.887.244.933-.879 2.046-2.517 2.48Z" fill="#fff"/><path d="m33.85 20.234 1.584-2.743 4.88 2.815-1.585 2.743-4.88-2.815ZM35.207 28.001c1.639.435 2.762 1.548 2.517 2.481-.253.932-1.783 1.33-3.413.887-1.639-.434-2.761-1.548-2.517-2.48.245-.933 1.775-1.322 3.413-.888Z" fill="#fff"/><path d="M37.752 32.41c-.435 1.639-1.549 2.762-2.481 2.517-.932-.244-1.33-1.774-.887-3.413.434-1.639 1.548-2.761 2.48-2.517.933.245 1.331 1.775.888 3.413Z" fill="#fff"/><path d="m36.62 31.976-1.585-2.743 4.88-2.816 1.584 2.743-4.88 2.816ZM57.424 21.447c-1.639-.435-2.761-1.548-2.517-2.48.253-.933 1.783-1.331 3.413-.888 1.639.435 2.761 1.548 2.517 2.48-.245.933-1.775 1.331-3.413.888Z" fill="#fff"/><path d="M54.87 17.047c.435-1.639 1.549-2.761 2.481-2.517.932.245 1.33 1.775.887 3.413-.434 1.639-1.548 2.761-2.48 2.517-.924-.254-1.322-1.784-.888-3.413Z" fill="#fff"/><path d="m56.002 17.482 1.585 2.743-4.88 2.815-1.584-2.743 4.88-2.815ZM53.694 32.428c-.435-1.639-.046-3.169.887-3.413.932-.253 2.037.878 2.48 2.517.435 1.638.046 3.168-.887 3.413-.932.244-2.037-.888-2.48-2.517Z" fill="#fff"/><path d="M56.247 28.01c1.638-.434 3.168-.045 3.413.887.244.933-.878 2.037-2.517 2.48-1.639.436-3.169.037-3.413-.886-.244-.933.878-2.037 2.517-2.48Z" fill="#fff"/><path d="m56.437 29.214-1.594 2.744-4.87-2.816 1.584-2.743 4.88 2.815Z" fill="#fff"/><path d="m44.179 27.413 1.548-2.499 1.548 2.499H44.18Z" fill="#000" stroke="#000" stroke-width=".975"/></g><path d="M129.166 83h-2.52c-.264 0-.414-.126-.45-.378l-1.926-10.818c-.036-.252.09-.378.378-.378h1.872c.276 0 .42.126.432.378l1.044 8.874h.126l1.728-8.928c.036-.216.162-.324.378-.324h2.016c.228 0 .36.102.396.306l1.764 8.946h.144l1.026-8.856c.012-.264.156-.396.432-.396h1.872c.288 0 .414.132.378.396l-1.944 10.8c-.036.252-.174.378-.414.378h-2.538c-.252 0-.396-.126-.432-.378l-1.62-8.442h-.072l-1.638 8.442c-.048.252-.192.378-.432.378Zm13.566 0h-.432c-.948 0-1.68-.252-2.196-.756-.516-.504-.774-1.23-.774-2.178v-3.312c0-.948.258-1.674.774-2.178s1.248-.756 2.196-.756h4.158c.264 0 .396.126.396.378v8.424c0 .252-.132.378-.396.378h-1.512c-.252 0-.378-.126-.378-.378v-.594h-.072c-.132.324-.366.57-.702.738-.336.156-.69.234-1.062.234Zm1.836-3.348v-3.654c0-.132-.072-.198-.216-.198h-1.692c-.384 0-.654.084-.81.252-.156.156-.234.426-.234.81v3.096c0 .384.078.66.234.828.156.156.426.234.81.234h.666c.828 0 1.242-.456 1.242-1.368ZM150.734 83h-1.53c-.252 0-.378-.126-.378-.378v-8.424c0-.252.126-.378.378-.378h1.53c.252 0 .378.126.378.378v.612h.072c.132-.324.366-.57.702-.738.336-.168.69-.252 1.062-.252h.648c.24 0 .36.126.36.378v1.242c0 .144-.03.246-.09.306-.048.048-.138.066-.27.054h-1.242c-.828 0-1.242.468-1.242 1.404v5.418c0 .252-.126.378-.378.378Zm11.328-1.998h.756c.504 0 .792-.24.864-.72l-1.962-2.304c-.288.012-.492.108-.612.288-.108.18-.162.486-.162.918v.774c0 .372.084.642.252.81.18.156.468.234.864.234Zm.756 1.998h-1.098c-.948 0-1.68-.252-2.196-.756-.516-.504-.774-1.224-.774-2.16V79.04c0-.6.156-1.128.468-1.584a1.849 1.849 0 0 1 1.35-.81 3.373 3.373 0 0 1-.702-2.106v-.198c0-.924.276-1.638.828-2.142.564-.516 1.326-.774 2.286-.774h.594c.948 0 1.68.252 2.196.756.516.504.774 1.224.774 2.16v.612c0 .264-.126.396-.378.396h-1.53c-.252 0-.378-.132-.378-.396v-.576c0-.372-.072-.636-.216-.792-.144-.168-.372-.252-.684-.252h-.144c-.348 0-.6.084-.756.252-.156.156-.234.42-.234.792v.234c0 .468.264 1.002.792 1.602l.846.972h3.996c.252 0 .378.132.378.396v1.224c0 .252-.126.378-.378.378h-2.34l2.934 3.492c.06.072.078.144.054.216-.024.072-.078.108-.162.108h-1.926c-.288 0-.498-.084-.63-.252l-.792-.936c-.132.42-.372.726-.72.918-.336.18-.822.27-1.458.27Zm15.082 0h-1.512c-.264 0-.396-.126-.396-.378v-9.018c0-.132-.066-.198-.198-.198h-2.052c-.252 0-.378-.126-.378-.378v-1.224c0-.252.126-.378.378-.378h6.804c.252 0 .378.126.378.378v1.224c0 .252-.126.378-.378.378h-2.052c-.144 0-.216.066-.216.198v9.018c0 .252-.126.378-.378.378Zm7.441 0h-.432c-.948 0-1.68-.252-2.196-.756-.516-.504-.774-1.23-.774-2.178v-3.312c0-.948.258-1.674.774-2.178s1.248-.756 2.196-.756h4.158c.264 0 .396.126.396.378v8.424c0 .252-.132.378-.396.378h-1.512c-.252 0-.378-.126-.378-.378v-.594h-.072c-.132.324-.366.57-.702.738-.336.156-.69.234-1.062.234Zm1.836-3.348v-3.654c0-.132-.072-.198-.216-.198h-1.692c-.384 0-.654.084-.81.252-.156.156-.234.426-.234.81v3.096c0 .384.078.66.234.828.156.156.426.234.81.234h.666c.828 0 1.242-.456 1.242-1.368Zm10.108 1.746v1.242c0 .132-.03.228-.09.288-.048.048-.144.072-.288.072h-2.682c-.948 0-1.68-.252-2.196-.756-.516-.504-.774-1.23-.774-2.178v-3.312c0-.948.258-1.674.774-2.178s1.248-.756 2.196-.756h2.682c.252 0 .378.126.378.378v1.242c0 .132-.03.228-.09.288-.048.048-.144.072-.288.072h-2.322c-.372 0-.642.084-.81.252-.156.156-.234.426-.234.81v3.096c0 .384.078.66.234.828.168.156.438.234.81.234h2.322c.252 0 .378.126.378.378Zm1.749-5.598h-.72c-.144 0-.246-.024-.306-.072-.048-.048-.072-.144-.072-.288v-1.242c0-.252.126-.378.378-.378h.72c.132 0 .198-.066.198-.198v-1.71c0-.252.132-.378.396-.378h1.512c.252 0 .378.126.378.378v1.71c0 .132.072.198.216.198h1.404c.252 0 .378.126.378.378v1.242c0 .132-.03.228-.09.288-.048.048-.144.072-.288.072h-1.404c-.144 0-.216.066-.216.198v3.978c0 .372.084.642.252.81.168.156.444.234.828.234h.72c.252 0 .378.126.378.378v1.242c0 .132-.03.228-.09.288-.048.048-.144.072-.288.072h-1.098c-.948 0-1.686-.252-2.214-.756-.516-.504-.774-1.224-.774-2.16v-4.086c0-.132-.066-.198-.198-.198Zm6.237-3.528v-1.566c0-.24.12-.36.36-.36h1.566c.24 0 .36.114.36.342v1.584c0 .24-.12.36-.36.36h-1.566c-.24 0-.36-.12-.36-.36Zm0 10.35v-8.424c0-.252.12-.378.36-.378h1.548c.252 0 .378.126.378.378v8.424c0 .156-.03.258-.09.306-.048.048-.138.072-.27.072h-1.548c-.252 0-.378-.126-.378-.378Zm10.208-1.224v1.242c0 .132-.03.228-.09.288-.048.048-.144.072-.288.072h-2.682c-.948 0-1.68-.252-2.196-.756-.516-.504-.774-1.23-.774-2.178v-3.312c0-.948.258-1.674.774-2.178s1.248-.756 2.196-.756h2.682c.252 0 .378.126.378.378v1.242c0 .132-.03.228-.09.288-.048.048-.144.072-.288.072h-2.322c-.372 0-.642.084-.81.252-.156.156-.234.426-.234.81v3.096c0 .384.078.66.234.828.168.156.438.234.81.234h2.322c.252 0 .378.126.378.378ZM220.251 83h-.432c-.948 0-1.68-.252-2.196-.756-.516-.504-.774-1.23-.774-2.178v-3.312c0-.948.258-1.674.774-2.178s1.248-.756 2.196-.756h4.158c.264 0 .396.126.396.378v8.424c0 .252-.132.378-.396.378h-1.512c-.252 0-.378-.126-.378-.378v-.594h-.072c-.132.324-.366.57-.702.738-.336.156-.69.234-1.062.234Zm1.836-3.348v-3.654c0-.132-.072-.198-.216-.198h-1.692c-.384 0-.654.084-.81.252-.156.156-.234.426-.234.81v3.096c0 .384.078.66.234.828.156.156.426.234.81.234h.666c.828 0 1.242-.456 1.242-1.368ZM228.343 83h-1.53c-.252 0-.378-.126-.378-.378V70.724c0-.252.126-.378.378-.378h1.53c.252 0 .378.126.378.378v11.898c0 .252-.126.378-.378.378Zm12.849 0h-5.886c-.252 0-.378-.126-.378-.378V71.804c0-.252.126-.378.378-.378h5.886c.24 0 .36.126.36.378v1.224c0 .252-.12.378-.36.378h-3.762c-.144 0-.216.066-.216.198v2.34c0 .132.072.198.216.198h3.078c.252 0 .378.126.378.378v1.224c0 .252-.126.378-.378.378h-3.078c-.144 0-.216.066-.216.198v2.502c0 .132.072.198.216.198h3.762c.24 0 .36.126.36.378v1.224c0 .252-.12.378-.36.378Zm1.773-9.18h1.584c.24 0 .384.126.432.378l1.548 6.768h.126l1.512-6.768c.048-.252.198-.378.45-.378h1.584c.252 0 .342.126.27.378l-2.268 8.406c-.048.264-.21.396-.486.396h-2.286c-.252 0-.414-.132-.486-.396l-2.25-8.406c-.072-.252.018-.378.27-.378ZM258.549 83h-3.978c-.948 0-1.68-.252-2.196-.756-.516-.504-.774-1.23-.774-2.178v-3.312c0-.948.258-1.674.774-2.178s1.248-.756 2.196-.756h1.422c.948 0 1.68.252 2.196.756.516.504.774 1.23.774 2.178v2.286c0 .252-.126.378-.378.378h-4.518c-.144 0-.216.066-.216.198v.396c0 .372.078.642.234.81.168.156.444.234.828.234h3.636c.252 0 .378.132.378.396v1.188c0 .132-.03.228-.09.288-.048.048-.144.072-.288.072Zm-4.482-5.112h2.448c.132 0 .198-.066.198-.198v-.864c0-.384-.078-.654-.234-.81-.156-.156-.426-.234-.81-.234h-.756c-.384 0-.654.078-.81.234-.156.156-.234.426-.234.81v.864c0 .132.066.198.198.198ZM262.584 83h-1.53c-.252 0-.378-.126-.378-.378v-8.424c0-.252.126-.378.378-.378h1.53c.252 0 .378.126.378.378v.594h.072c.264-.648.852-.972 1.764-.972h.576c1.884 0 2.826.978 2.826 2.934v5.868c0 .252-.132.378-.396.378h-1.512c-.252 0-.378-.126-.378-.378v-5.76c0-.384-.084-.654-.252-.81-.156-.168-.426-.252-.81-.252h-.648c-.828 0-1.242.456-1.242 1.368v5.454c0 .252-.126.378-.378.378Zm7.711-7.2h-.72c-.144 0-.246-.024-.306-.072-.048-.048-.072-.144-.072-.288v-1.242c0-.252.126-.378.378-.378h.72c.132 0 .198-.066.198-.198v-1.71c0-.252.132-.378.396-.378h1.512c.252 0 .378.126.378.378v1.71c0 .132.072.198.216.198h1.404c.252 0 .378.126.378.378v1.242c0 .132-.03.228-.09.288-.048.048-.144.072-.288.072h-1.404c-.144 0-.216.066-.216.198v3.978c0 .372.084.642.252.81.168.156.444.234.828.234h.72c.252 0 .378.126.378.378v1.242c0 .132-.03.228-.09.288-.048.048-.144.072-.288.072h-1.098c-.948 0-1.686-.252-2.214-.756-.516-.504-.774-1.224-.774-2.16v-4.086c0-.132-.066-.198-.198-.198Zm9.622 7.2h-3.42c-.24 0-.36-.126-.36-.378V81.47c0-.132.024-.222.072-.27.048-.06.144-.09.288-.09h3.006c.588 0 .882-.18.882-.54v-.09c0-.288-.246-.564-.738-.828l-1.782-.99c-.612-.312-1.062-.648-1.35-1.008-.288-.36-.432-.822-.432-1.386 0-.84.222-1.458.666-1.854.444-.396 1.14-.594 2.088-.594h3.006c.24 0 .36.126.36.378v1.17c0 .132-.024.228-.072.288-.048.048-.144.072-.288.072h-2.502c-.588 0-.882.15-.882.45v.09c0 .264.258.534.774.81l1.818 1.08c.624.336 1.062.684 1.314 1.044.252.348.378.81.378 1.386 0 1.608-.942 2.412-2.826 2.412Z" fill="#fff"/><path fill="#F9B00B" d="M104 60h199v2H104z"/><path d="M120.792 53h-5.232c-2.528 0-4.48-.672-5.856-2.016-1.376-1.344-2.064-3.28-2.064-5.808V29.96c0-2.528.688-4.464 2.064-5.808 1.376-1.344 3.328-2.016 5.856-2.016h5.232c2.496 0 4.432.688 5.808 2.064 1.408 1.344 2.112 3.264 2.112 5.76v2.256c0 .704-.352 1.056-1.056 1.056h-4.032c-.672 0-1.008-.352-1.008-1.056v-1.968c0-1.024-.224-1.744-.672-2.16-.416-.448-1.136-.672-2.16-.672h-3.264c-.992 0-1.712.224-2.16.672-.416.416-.624 1.136-.624 2.16v14.64c0 1.024.208 1.76.624 2.208.448.416 1.168.624 2.16.624h3.264c1.024 0 1.744-.208 2.16-.624.448-.448.672-1.184.672-2.208V42.92c0-.704.336-1.056 1.008-1.056h4.032c.704 0 1.056.352 1.056 1.056v2.256c0 2.496-.704 4.432-2.112 5.808-1.376 1.344-3.312 2.016-5.808 2.016Zm21.556-5.28h3.408c1.024 0 1.744-.208 2.16-.624.448-.448.672-1.184.672-2.208v-14.64c0-1.024-.224-1.744-.672-2.16-.416-.448-1.136-.672-2.16-.672h-3.408c-1.024 0-1.744.224-2.16.672-.416.416-.624 1.136-.624 2.16v14.64c0 1.024.208 1.76.624 2.208.416.416 1.136.624 2.16.624Zm4.416 5.28h-5.376c-2.528 0-4.48-.672-5.856-2.016-1.376-1.344-2.064-3.28-2.064-5.808V29.96c0-2.528.688-4.464 2.064-5.808 1.376-1.344 3.328-2.016 5.856-2.016h5.376c2.528 0 4.48.672 5.856 2.016 1.376 1.344 2.064 3.28 2.064 5.808v15.216c0 2.528-.688 4.464-2.064 5.808-1.376 1.344-3.328 2.016-5.856 2.016Zm18.757 0h-4.08c-.672 0-1.008-.336-1.008-1.008V23.144c0-.672.336-1.008 1.008-1.008h11.424c2.496 0 4.448.688 5.856 2.064 1.408 1.376 2.112 3.312 2.112 5.808v3.744c0 3.616-1.424 6.016-4.272 7.2v.192l5.136 10.704c.288.768.016 1.152-.816 1.152h-3.888c-.576 0-.992-.064-1.248-.192s-.464-.4-.624-.816l-4.8-10.368h-3.216c-.384 0-.576.176-.576.528v9.84c0 .672-.336 1.008-1.008 1.008Zm1.536-16.272h4.704c1.024 0 1.776-.208 2.256-.624.48-.448.72-1.152.72-2.112v-3.744c0-.992-.24-1.712-.72-2.16-.48-.448-1.232-.672-2.256-.672h-4.704c-.352 0-.528.176-.528.528V36.2c0 .352.176.528.528.528Zm18.858 8.4v-.96c0-.672.336-1.008 1.008-1.008h4.08c.672 0 1.008.336 1.008 1.008v.384c0 1.216.24 2.048.72 2.496.48.448 1.36.672 2.64.672h2.256c1.248 0 2.112-.24 2.592-.72.512-.48.768-1.376.768-2.688v-.576c0-.928-.384-1.632-1.152-2.112-.736-.512-1.664-.816-2.784-.912a34.572 34.572 0 0 1-3.648-.528c-1.28-.288-2.48-.64-3.6-1.056-1.12-.448-2.064-1.296-2.832-2.544-.736-1.28-1.104-2.912-1.104-4.896v-1.68c0-2.496.704-4.432 2.112-5.808 1.408-1.376 3.36-2.064 5.856-2.064h4.8c2.528 0 4.496.688 5.904 2.064 1.408 1.376 2.112 3.312 2.112 5.808v.912c0 .672-.336 1.008-1.008 1.008h-4.08c-.672 0-1.008-.336-1.008-1.008v-.288c0-1.248-.24-2.096-.72-2.544-.48-.448-1.36-.672-2.64-.672h-1.872c-1.312 0-2.208.256-2.688.768-.448.48-.672 1.44-.672 2.88v.912c0 1.504 1.312 2.368 3.935 2.592 2.721.224 5.137.768 7.249 1.632 1.12.48 2.048 1.344 2.784 2.592.768 1.216 1.152 2.784 1.152 4.704v1.632c0 2.496-.704 4.432-2.112 5.808-1.408 1.376-3.36 2.064-5.856 2.064h-5.232c-2.496 0-4.448-.688-5.856-2.064-1.408-1.376-2.112-3.312-2.112-5.808ZM215.773 53h-4.607c-.576 0-.768-.336-.576-1.008l7.584-28.848c.224-.672.704-1.008 1.44-1.008h6.384c.8 0 1.28.336 1.44 1.008l7.584 28.848c.192.672 0 1.008-.576 1.008h-4.608c-.352 0-.592-.064-.72-.192-.128-.16-.224-.432-.288-.816l-1.344-5.28h-9.36l-1.344 5.28c-.064.384-.176.656-.336.816-.128.128-.352.192-.673.192Zm6.961-25.056-3.456 13.872h7.104l-3.456-13.872h-.192Zm22.878-4.8v28.848c0 .672-.336 1.008-1.008 1.008h-4.08c-.672 0-1.008-.336-1.008-1.008V23.144c0-.672.336-1.008 1.008-1.008h4.08c.672 0 1.008.336 1.008 1.008ZM257.161 53h-4.08c-.672 0-1.008-.336-1.008-1.008V23.144c0-.672.336-1.008 1.008-1.008h11.424c2.496 0 4.448.688 5.856 2.064 1.408 1.376 2.112 3.312 2.112 5.808v3.744c0 3.616-1.424 6.016-4.272 7.2v.192l5.136 10.704c.288.768.016 1.152-.816 1.152h-3.888c-.576 0-.992-.064-1.248-.192s-.464-.4-.624-.816l-4.8-10.368h-3.216c-.384 0-.576.176-.576.528v9.84c0 .672-.336 1.008-1.008 1.008Zm1.536-16.272h4.704c1.024 0 1.776-.208 2.256-.624.48-.448.72-1.152.72-2.112v-3.744c0-.992-.24-1.712-.72-2.16-.48-.448-1.232-.672-2.256-.672h-4.704c-.352 0-.528.176-.528.528V36.2c0 .352.176.528.528.528Zm18.858 8.4v-.96c0-.672.336-1.008 1.008-1.008h4.08c.672 0 1.008.336 1.008 1.008v.384c0 1.216.24 2.048.72 2.496.48.448 1.36.672 2.64.672h2.256c1.248 0 2.112-.24 2.592-.72.512-.48.768-1.376.768-2.688v-.576c0-.928-.384-1.632-1.152-2.112-.736-.512-1.664-.816-2.784-.912a34.572 34.572 0 0 1-3.648-.528c-1.28-.288-2.48-.64-3.6-1.056-1.12-.448-2.064-1.296-2.832-2.544-.736-1.28-1.104-2.912-1.104-4.896v-1.68c0-2.496.704-4.432 2.112-5.808 1.408-1.376 3.36-2.064 5.856-2.064h4.8c2.528 0 4.496.688 5.904 2.064 1.408 1.376 2.112 3.312 2.112 5.808v.912c0 .672-.336 1.008-1.008 1.008h-4.08c-.672 0-1.008-.336-1.008-1.008v-.288c0-1.248-.24-2.096-.72-2.544-.48-.448-1.36-.672-2.64-.672h-1.872c-1.312 0-2.208.256-2.688.768-.448.48-.672 1.44-.672 2.88v.912c0 1.504 1.312 2.368 3.936 2.592 2.72.224 5.136.768 7.248 1.632 1.12.48 2.048 1.344 2.784 2.592.768 1.216 1.152 2.784 1.152 4.704v1.632c0 2.496-.704 4.432-2.112 5.808-1.408 1.376-3.36 2.064-5.856 2.064h-5.232c-2.496 0-4.448-.688-5.856-2.064-1.408-1.376-2.112-3.312-2.112-5.808Z" fill="#fff"/><defs><clipPath id="a"><path fill="#fff" d="M0 0h91.309v100H0z"/></clipPath></defs></svg>